CooperativaSans.ufo
<glyph name="exclam" format="2">
	<advance width="244"/>
	<unicode hex="0021"/>
	<outline>
		<contour>
			<point x="81" y="183" type="curve"/>
			<point x="166" y="183" type="line"/>
			<point x="167" y="496"/>
			<point x="173" y="568"/>
			<point x="180" y="743" type="curve"/>
			<point x="180" y="743"/>
			<point x="152" y="749"/>
			<point x="122" y="749" type="curve" smooth="yes"/>
			<point x="92" y="749"/>
			<point x="67" y="743"/>
			<point x="67" y="743" type="curve"/>
			<point x="75" y="509"/>
			<point x="79" y="337"/>
		</contour>
		<contour>
			<point x="121" y="-33" type="curve" smooth="yes"/>
			<point x="155" y="-33"/>
			<point x="184" y="-5"/>
			<point x="184" y="29" type="curve" smooth="yes"/>
			<point x="184" y="63"/>
			<point x="155" y="92"/>
			<point x="121" y="92" type="curve" smooth="yes"/>
			<point x="87" y="92"/>
			<point x="60" y="63"/>
			<point x="60" y="29" type="curve" smooth="yes"/>
			<point x="60" y="-5"/>
			<point x="87" y="-33"/>
		</contour>
	</outline>
</glyph>
<glyph name="parenright" format="2">
	<advance width="419"/>
	<unicode hex="0029"/>
	<outline>
		<contour>
			<point x="369" y="301" type="curve" smooth="yes"/>
			<point x="369" y="688"/>
			<point x="62" y="827"/>
			<point x="62" y="827" type="curve"/>
			<point x="42" y="803"/>
			<point x="26" y="774"/>
			<point x="20" y="745" type="curve"/>
			<point x="88" y="727"/>
			<point x="266" y="613"/>
			<point x="266" y="301" type="curve" smooth="yes"/>
			<point x="266" y="-11"/>
			<point x="88" y="-125"/>
			<point x="20" y="-143" type="curve"/>
			<point x="26" y="-172"/>
			<point x="42" y="-201"/>
			<point x="62" y="-225" type="curve"/>
			<point x="62" y="-225"/>
			<point x="369" y="-86"/>
		</contour>
	</outline>
</glyph>
<glyph name="hyphen" format="2">
	<advance width="428"/>
	<unicode hex="002D"/>
	<outline>
		<contour>
			<point x="57" y="262" type="curve"/>
			<point x="57" y="262"/>
			<point x="158" y="264"/>
			<point x="213" y="264" type="curve" smooth="yes"/>
			<point x="269" y="264"/>
			<point x="371" y="262"/>
			<point x="371" y="262" type="curve"/>
			<point x="371" y="262"/>
			<point x="373" y="289"/>
			<point x="373" y="306" type="curve" smooth="yes"/>
			<point x="373" y="322"/>
			<point x="371" y="348"/>
			<point x="371" y="348" type="curve"/>
			<point x="371" y="348"/>
			<point x="271" y="346"/>
			<point x="213" y="346" type="curve" smooth="yes"/>
			<point x="158" y="346"/>
			<point x="57" y="348"/>
			<point x="57" y="348" type="curve"/>
			<point x="57" y="348"/>
			<point x="55" y="319"/>
			<point x="55" y="306" type="curve" smooth="yes"/>
			<point x="55" y="290"/>
			<point x="57" y="262"/>
		</contour>
	</outline>
</glyph>
<glyph name="three" format="2">
	<advance width="579"/>
	<unicode hex="0033"/>
	<outline>
		<contour>
			<point x="256" y="-9" type="curve" smooth="yes"/>
			<point x="388" y="-9"/>
			<point x="519" y="68"/>
			<point x="519" y="220" type="curve" smooth="yes"/>
			<point x="519" y="390"/>
			<point x="357" y="418"/>
			<point x="357" y="418" type="curve"/>
			<point x="357" y="418"/>
			<point x="493" y="445"/>
			<point x="493" y="579" type="curve" smooth="yes"/>
			<point x="493" y="678"/>
			<point x="420" y="769"/>
			<point x="270" y="769" type="curve" smooth="yes"/>
			<point x="123" y="769"/>
			<point x="62" y="681"/>
			<point x="62" y="681" type="curve"/>
			<point x="68" y="662"/>
			<point x="98" y="623"/>
			<point x="122" y="610" type="curve"/>
			<point x="141" y="633"/>
			<point x="169" y="690"/>
			<point x="265" y="690" type="curve" smooth="yes"/>
			<point x="337" y="690"/>
			<point x="388" y="649"/>
			<point x="388" y="578" type="curve" smooth="yes"/>
			<point x="388" y="452"/>
			<point x="226" y="457"/>
			<point x="218" y="457" type="curve"/>
			<point x="218" y="380" type="line"/>
			<point x="218" y="380"/>
			<point x="411" y="367"/>
			<point x="411" y="221" type="curve" smooth="yes"/>
			<point x="411" y="133"/>
			<point x="341" y="66"/>
			<point x="254" y="72" type="curve" smooth="yes"/>
			<point x="159" y="78"/>
			<point x="90" y="154"/>
			<point x="90" y="154" type="curve"/>
			<point x="74" y="146"/>
			<point x="40" y="96"/>
			<point x="40" y="76" type="curve"/>
			<point x="63" y="55"/>
			<point x="136" y="-9"/>
		</contour>
	</outline>
</glyph>
<glyph name="six" format="2">
	<advance width="619"/>
	<unicode hex="0036"/>
	<outline>
		<contour>
			<point x="310" y="-16" type="curve" smooth="yes"/>
			<point x="459" y="-16"/>
			<point x="559" y="85"/>
			<point x="559" y="242" type="curve" smooth="yes"/>
			<point x="559" y="401"/>
			<point x="457" y="495"/>
			<point x="328" y="495" type="curve" smooth="yes"/>
			<point x="158" y="495"/>
			<point x="119" y="333"/>
			<point x="119" y="333" type="curve"/>
			<point x="163" y="353" type="line"/>
			<point x="163" y="584"/>
			<point x="243" y="686"/>
			<point x="351" y="686" type="curve" smooth="yes"/>
			<point x="388" y="686"/>
			<point x="437" y="671"/>
			<point x="463" y="648" type="curve"/>
			<point x="485" y="657"/>
			<point x="511" y="696"/>
			<point x="513" y="721" type="curve"/>
			<point x="485" y="744"/>
			<point x="427" y="766"/>
			<point x="357" y="766" type="curve" smooth="yes"/>
			<point x="200" y="766"/>
			<point x="60" y="654"/>
			<point x="60" y="346" type="curve" smooth="yes"/>
			<point x="60" y="72"/>
			<point x="171" y="-16"/>
		</contour>
		<contour>
			<point x="307" y="64" type="curve" smooth="yes"/>
			<point x="221" y="64"/>
			<point x="165" y="124"/>
			<point x="165" y="240" type="curve" smooth="yes"/>
			<point x="165" y="362"/>
			<point x="227" y="415"/>
			<point x="313" y="415" type="curve" smooth="yes"/>
			<point x="396" y="415"/>
			<point x="454" y="366"/>
			<point x="454" y="244" type="curve" smooth="yes"/>
			<point x="454" y="108"/>
			<point x="381" y="64"/>
		</contour>
	</outline>
</glyph>
<glyph name="eight" format="2">
	<advance width="600"/>
	<unicode hex="0038"/>
	<outline>
		<contour>
			<point x="300" y="-15" type="curve" smooth="yes"/>
			<point x="443" y="-15"/>
			<point x="550" y="66"/>
			<point x="550" y="211" type="curve" smooth="yes"/>
			<point x="550" y="351"/>
			<point x="443" y="437"/>
			<point x="300" y="437" type="curve" smooth="yes"/>
			<point x="157" y="437"/>
			<point x="50" y="351"/>
			<point x="50" y="211" type="curve" smooth="yes"/>
			<point x="50" y="66"/>
			<point x="157" y="-15"/>
		</contour>
		<contour>
			<point x="300" y="65" type="curve" smooth="yes"/>
			<point x="222" y="65"/>
			<point x="152" y="111"/>
			<point x="152" y="211" type="curve" smooth="yes"/>
			<point x="152" y="311"/>
			<point x="222" y="360"/>
			<point x="300" y="360" type="curve" smooth="yes"/>
			<point x="378" y="360"/>
			<point x="448" y="311"/>
			<point x="448" y="211" type="curve" smooth="yes"/>
			<point x="448" y="111"/>
			<point x="377" y="65"/>
		</contour>
		<contour>
			<point x="300" y="453" type="curve" smooth="yes"/>
			<point x="232" y="453"/>
			<point x="183" y="496"/>
			<point x="183" y="571" type="curve" smooth="yes"/>
			<point x="183" y="646"/>
			<point x="232" y="686"/>
			<point x="300" y="686" type="curve" smooth="yes"/>
			<point x="368" y="686"/>
			<point x="417" y="646"/>
			<point x="417" y="571" type="curve" smooth="yes"/>
			<point x="417" y="495"/>
			<point x="368" y="453"/>
		</contour>
		<contour>
			<point x="300" y="385" type="curve" smooth="yes"/>
			<point x="443" y="385"/>
			<point x="519" y="461"/>
			<point x="519" y="571" type="curve" smooth="yes"/>
			<point x="519" y="674"/>
			<point x="443" y="766"/>
			<point x="300" y="766" type="curve" smooth="yes"/>
			<point x="157" y="766"/>
			<point x="81" y="674"/>
			<point x="81" y="571" type="curve" smooth="yes"/>
			<point x="81" y="461"/>
			<point x="157" y="385"/>
		</contour>
	</outline>
</glyph>
<glyph name="question" format="2">
	<advance width="558"/>
	<unicode hex="003F"/>
	<outline>
		<contour>
			<point x="174" y="176" type="curve"/>
			<point x="268" y="176" type="line"/>
			<point x="264" y="212"/>
			<point x="265" y="245"/>
			<point x="265" y="281" type="curve" smooth="yes"/>
			<point x="265" y="293"/>
			<point x="274" y="309"/>
			<point x="303" y="336" type="curve" smooth="yes"/>
			<point x="384" y="410"/>
			<point x="498" y="461"/>
			<point x="498" y="600" type="curve" smooth="yes"/>
			<point x="498" y="719"/>
			<point x="414" y="808"/>
			<point x="277" y="808" type="curve" smooth="yes"/>
			<point x="132" y="808"/>
			<point x="50" y="695"/>
			<point x="50" y="695" type="curve"/>
			<point x="55" y="673"/>
			<point x="94" y="637"/>
			<point x="115" y="631" type="curve"/>
			<point x="143" y="669"/>
			<point x="187" y="728"/>
			<point x="269" y="728" type="curve" smooth="yes"/>
			<point x="347" y="728"/>
			<point x="400" y="675"/>
			<point x="400" y="593" type="curve" smooth="yes"/>
			<point x="400" y="437"/>
			<point x="177" y="413"/>
			<point x="177" y="286" type="curve" smooth="yes"/>
			<point x="177" y="211"/>
			<point x="174" y="176"/>
		</contour>
		<contour>
			<point x="220" y="-33" type="curve" smooth="yes"/>
			<point x="254" y="-33"/>
			<point x="283" y="-5"/>
			<point x="283" y="29" type="curve" smooth="yes"/>
			<point x="283" y="63"/>
			<point x="254" y="92"/>
			<point x="220" y="92" type="curve" smooth="yes"/>
			<point x="186" y="92"/>
			<point x="159" y="63"/>
			<point x="159" y="29" type="curve" smooth="yes"/>
			<point x="159" y="-5"/>
			<point x="186" y="-33"/>
		</contour>
	</outline>
</glyph>
<glyph name="C" format="2">
	<advance width="632"/>
	<unicode hex="0043"/>
	<outline>
		<contour>
			<point x="364" y="-15" type="curve" smooth="yes"/>
			<point x="453" y="-15"/>
			<point x="544" y="15"/>
			<point x="587" y="53" type="curve"/>
			<point x="587" y="91"/>
			<point x="573" y="129"/>
			<point x="553" y="141" type="curve"/>
			<point x="506" y="105"/>
			<point x="431" y="73"/>
			<point x="365" y="73" type="curve" smooth="yes"/>
			<point x="237" y="73"/>
			<point x="155" y="181"/>
			<point x="155" y="368" type="curve" smooth="yes"/>
			<point x="155" y="566"/>
			<point x="243" y="683"/>
			<point x="382" y="683" type="curve" smooth="yes"/>
			<point x="436" y="683"/>
			<point x="492" y="665"/>
			<point x="523" y="639" type="curve"/>
			<point x="535" y="648"/>
			<point x="560" y="695"/>
			<point x="560" y="723" type="curve"/>
			<point x="524" y="749"/>
			<point x="454" y="766"/>
			<point x="385" y="766" type="curve" smooth="yes"/>
			<point x="175" y="766"/>
			<point x="50" y="606"/>
			<point x="50" y="365" type="curve" smooth="yes"/>
			<point x="50" y="125"/>
			<point x="173" y="-15"/>
		</contour>
	</outline>
</glyph>
<glyph name="D" format="2">
	<advance width="657"/>
	<unicode hex="0044"/>
	<anchor x="336" y="750" name="top"/>
	<anchor x="336" y="0" name="bottom"/>
	<anchor x="336" y="375" name="center"/>
	<outline>
		<contour>
			<point x="241" y="-16" type="curve" smooth="yes"/>
			<point x="418" y="-16"/>
			<point x="607" y="67"/>
			<point x="607" y="375" type="curve" smooth="yes"/>
			<point x="607" y="682"/>
			<point x="418" y="766"/>
			<point x="241" y="766" type="curve" smooth="yes"/>
			<point x="137" y="766"/>
			<point x="70" y="750"/>
			<point x="70" y="750" type="curve"/>
			<point x="105" y="656" type="line"/>
			<point x="105" y="656"/>
			<point x="170" y="686"/>
			<point x="256" y="686" type="curve" smooth="yes"/>
			<point x="397" y="686"/>
			<point x="506" y="572"/>
			<point x="506" y="375" type="curve" smooth="yes"/>
			<point x="506" y="168"/>
			<point x="406" y="64"/>
			<point x="256" y="64" type="curve" smooth="yes"/>
			<point x="170" y="64"/>
			<point x="106" y="84"/>
			<point x="106" y="84" type="curve"/>
			<point x="73" y="0" type="line"/>
			<point x="73" y="0"/>
			<point x="137" y="-16"/>
		</contour>
		<contour>
			<point x="73" y="0" type="curve"/>
			<point x="182" y="0" type="line"/>
			<point x="182" y="0"/>
			<point x="175" y="137"/>
			<point x="175" y="335" type="curve" smooth="yes"/>
			<point x="175" y="415" type="line" smooth="yes"/>
			<point x="175" y="616"/>
			<point x="185" y="750"/>
			<point x="185" y="750" type="curve"/>
			<point x="70" y="750" type="line"/>
			<point x="70" y="750"/>
			<point x="80" y="616"/>
			<point x="80" y="415" type="curve" smooth="yes"/>
			<point x="80" y="335" type="line" smooth="yes"/>
			<point x="80" y="137"/>
			<point x="73" y="0"/>
		</contour>
	</outline>
</glyph>
<glyph name="G" format="2">
	<advance width="697"/>
	<unicode hex="0047"/>
	<anchor x="345" y="750" name="top"/>
	<anchor x="345" y="0" name="bottom"/>
	<outline>
		<contour>
			<point x="357" y="-16" type="curve" smooth="yes"/>
			<point x="553" y="-16"/>
			<point x="647" y="145"/>
			<point x="647" y="316" type="curve" smooth="yes"/>
			<point x="647" y="374"/>
			<point x="637" y="396"/>
			<point x="637" y="396" type="curve"/>
			<point x="526" y="396" type="line" smooth="yes"/>
			<point x="413" y="396"/>
			<point x="353" y="401"/>
			<point x="353" y="401" type="curve"/>
			<point x="348" y="377"/>
			<point x="347" y="335"/>
			<point x="353" y="313" type="curve"/>
			<point x="353" y="313"/>
			<point x="410" y="319"/>
			<point x="531" y="319" type="curve" smooth="yes"/>
			<point x="568" y="319" type="line"/>
			<point x="555" y="336" type="line"/>
			<point x="555" y="155"/>
			<point x="483" y="64"/>
			<point x="361" y="64" type="curve" smooth="yes"/>
			<point x="230" y="64"/>
			<point x="155" y="176"/>
			<point x="155" y="375" type="curve" smooth="yes"/>
			<point x="155" y="585"/>
			<point x="231" y="686"/>
			<point x="378" y="686" type="curve" smooth="yes"/>
			<point x="473" y="686"/>
			<point x="515" y="649"/>
			<point x="551" y="613" type="curve"/>
			<point x="551" y="613"/>
			<point x="569" y="625"/>
			<point x="583" y="642" type="curve" smooth="yes"/>
			<point x="604" y="668"/>
			<point x="605" y="687"/>
			<point x="605" y="687" type="curve"/>
			<point x="565" y="733"/>
			<point x="491" y="766"/>
			<point x="384" y="766" type="curve" smooth="yes"/>
			<point x="254" y="766"/>
			<point x="50" y="704"/>
			<point x="50" y="370" type="curve" smooth="yes"/>
			<point x="50" y="59"/>
			<point x="238" y="-16"/>
		</contour>
	</outline>
</glyph>
<glyph name="H" format="2">
	<advance width="702"/>
	<unicode hex="0048"/>
	<anchor x="351" y="750" name="top"/>
	<anchor x="351" y="0" name="bottom"/>
	<anchor x="351" y="375" name="center"/>
	<anchor x="32" y="750" name="topleft"/>
	<outline>
		<contour>
			<point x="520" y="0" type="curve"/>
			<point x="629" y="0" type="line"/>
			<point x="629" y="0"/>
			<point x="622" y="137"/>
			<point x="622" y="335" type="curve" smooth="yes"/>
			<point x="622" y="415" type="line" smooth="yes"/>
			<point x="622" y="616"/>
			<point x="632" y="750"/>
			<point x="632" y="750" type="curve"/>
			<point x="517" y="750" type="line"/>
			<point x="517" y="750"/>
			<point x="527" y="616"/>
			<point x="527" y="415" type="curve" smooth="yes"/>
			<point x="527" y="335" type="line" smooth="yes"/>
			<point x="527" y="137"/>
			<point x="520" y="0"/>
		</contour>
		<contour>
			<point x="73" y="0" type="curve"/>
			<point x="182" y="0" type="line"/>
			<point x="182" y="0"/>
			<point x="175" y="137"/>
			<point x="175" y="335" type="curve" smooth="yes"/>
			<point x="175" y="415" type="line" smooth="yes"/>
			<point x="175" y="616"/>
			<point x="185" y="750"/>
			<point x="185" y="750" type="curve"/>
			<point x="70" y="750" type="line"/>
			<point x="70" y="750"/>
			<point x="80" y="616"/>
			<point x="80" y="415" type="curve" smooth="yes"/>
			<point x="80" y="335" type="line" smooth="yes"/>
			<point x="80" y="137"/>
			<point x="73" y="0"/>
		</contour>
		<contour>
			<point x="172" y="334" type="line"/>
			<point x="351" y="336" type="line"/>
			<point x="530" y="334" type="line"/>
			<point x="530" y="422" type="line"/>
			<point x="351" y="420" type="line"/>
			<point x="172" y="422" type="line"/>
		</contour>
	</outline>
</glyph>
<glyph name="J" format="2">
	<advance width="301"/>
	<unicode hex="004A"/>
	<anchor x="151" y="750" name="top"/>
	<anchor x="151" y="0" name="bottom"/>
	<outline>
		<contour>
			<point x="125" y="-209" type="curve"/>
			<point x="173" y="-169"/>
			<point x="210" y="-88"/>
			<point x="210" y="36" type="curve" smooth="yes"/>
			<point x="210" y="282" type="line"/>
			<point x="216" y="750" type="line"/>
			<point x="109" y="750" type="line"/>
			<point x="116" y="278" type="line"/>
			<point x="116" y="72" type="line" smooth="yes"/>
			<point x="116" y="-53"/>
			<point x="81" y="-108"/>
			<point x="40" y="-156" type="curve"/>
			<point x="57" y="-174"/>
			<point x="96" y="-203"/>
		</contour>
	</outline>
</glyph>
<glyph name="K" format="2">
	<advance width="606"/>
	<unicode hex="004B"/>
	<anchor x="322" y="750" name="top"/>
	<anchor x="322" y="0" name="bottom"/>
	<outline>
		<contour>
			<point x="469" y="0" type="curve"/>
			<point x="586" y="0" type="line"/>
			<point x="586" y="0"/>
			<point x="411" y="278"/>
			<point x="324" y="406" type="curve"/>
			<point x="578" y="750" type="line"/>
			<point x="578" y="750"/>
			<point x="564" y="755"/>
			<point x="528" y="755" type="curve" smooth="yes"/>
			<point x="498" y="755"/>
			<point x="465" y="751"/>
			<point x="465" y="751" type="curve"/>
			<point x="428" y="697"/>
			<point x="266" y="464"/>
			<point x="248" y="444" type="curve"/>
			<point x="151" y="444" type="line"/>
			<point x="151" y="357" type="line"/>
			<point x="252" y="357" type="line"/>
			<point x="323" y="253"/>
			<point x="469" y="0"/>
		</contour>
		<contour>
			<point x="68" y="0" type="curve"/>
			<point x="180" y="0" type="line"/>
			<point x="180" y="0"/>
			<point x="163" y="141"/>
			<point x="163" y="296" type="curve" smooth="yes"/>
			<point x="163" y="388"/>
			<point x="162" y="440"/>
			<point x="164" y="532" type="curve" smooth="yes"/>
			<point x="169" y="752" type="line"/>
			<point x="169" y="752"/>
			<point x="149" y="755"/>
			<point x="119" y="755" type="curve" smooth="yes"/>
			<point x="89" y="755"/>
			<point x="69" y="752"/>
			<point x="69" y="752" type="curve"/>
			<point x="72" y="689"/>
			<point x="73" y="646"/>
			<point x="73" y="526" type="curve" smooth="yes"/>
			<point x="73" y="286" type="line" smooth="yes"/>
			<point x="73" y="160"/>
			<point x="68" y="0"/>
		</contour>
	</outline>
</glyph>
<glyph name="L" format="2">
	<advance width="516"/>
	<unicode hex="004C"/>
	<anchor x="249" y="750" name="top"/>
	<anchor x="249" y="0" name="bottom"/>
	<anchor x="249" y="375" name="center"/>
	<anchor x="470" y="750" name="topright"/>
	<outline>
		<contour>
			<point x="71" y="0" type="curve"/>
			<point x="180" y="0" type="line"/>
			<point x="180" y="0"/>
			<point x="173" y="137"/>
			<point x="173" y="335" type="curve" smooth="yes"/>
			<point x="173" y="415" type="line" smooth="yes"/>
			<point x="173" y="616"/>
			<point x="183" y="750"/>
			<point x="183" y="750" type="curve"/>
			<point x="68" y="750" type="line"/>
			<point x="68" y="750"/>
			<point x="78" y="616"/>
			<point x="78" y="415" type="curve" smooth="yes"/>
			<point x="78" y="335" type="line" smooth="yes"/>
			<point x="78" y="137"/>
			<point x="71" y="0"/>
		</contour>
		<contour>
			<point x="480" y="-4" type="curve"/>
			<point x="488" y="20"/>
			<point x="488" y="72"/>
			<point x="482" y="91" type="curve"/>
			<point x="482" y="91"/>
			<point x="384" y="78"/>
			<point x="266" y="78" type="curve" smooth="yes"/>
			<point x="149" y="78" type="line"/>
			<point x="148" y="0" type="line"/>
			<point x="305" y="0" type="line" smooth="yes"/>
			<point x="386" y="0"/>
			<point x="480" y="-4"/>
		</contour>
	</outline>
</glyph>
<glyph name="M" format="2">
	<advance width="835"/>
	<unicode hex="004D"/>
	<anchor x="418" y="750" name="top"/>
	<anchor x="418" y="0" name="bottom"/>
	<outline>
		<contour>
			<point x="388" y="0" type="line"/>
			<point x="456" y="0" type="line"/>
			<point x="610" y="375" type="line"/>
			<point x="709" y="714" type="line"/>
			<point x="757" y="750" type="line"/>
			<point x="657" y="750" type="line"/>
			<point x="391" y="50" type="line"/>
		</contour>
		<contour>
			<point x="68" y="0" type="curve"/>
			<point x="168" y="0" type="line"/>
			<point x="168" y="0"/>
			<point x="162" y="137"/>
			<point x="162" y="335" type="curve" smooth="yes"/>
			<point x="162" y="750" type="line"/>
			<point x="68" y="750" type="line"/>
			<point x="68" y="750"/>
			<point x="77" y="616"/>
			<point x="77" y="415" type="curve" smooth="yes"/>
			<point x="77" y="335" type="line" smooth="yes"/>
			<point x="77" y="137"/>
			<point x="68" y="0"/>
		</contour>
		<contour>
			<point x="376" y="0" type="line"/>
			<point x="444" y="0" type="line"/>
			<point x="441" y="50" type="line"/>
			<point x="175" y="750" type="line"/>
			<point x="75" y="750" type="line"/>
			<point x="123" y="714" type="line"/>
			<point x="222" y="375" type="line"/>
		</contour>
		<contour>
			<point x="667" y="0" type="curve"/>
			<point x="767" y="0" type="line"/>
			<point x="767" y="0"/>
			<point x="761" y="137"/>
			<point x="761" y="335" type="curve" smooth="yes"/>
			<point x="761" y="415" type="line" smooth="yes"/>
			<point x="761" y="616"/>
			<point x="764" y="750"/>
			<point x="764" y="750" type="curve"/>
			<point x="676" y="750" type="line"/>
			<point x="676" y="335" type="line" smooth="yes"/>
			<point x="676" y="137"/>
			<point x="667" y="0"/>
		</contour>
	</outline>
</glyph>
<glyph name="N" format="2">
	<advance width="669"/>
	<unicode hex="004E"/>
	<anchor x="335" y="750" name="top"/>
	<anchor x="335" y="0" name="bottom"/>
	<outline>
		<contour>
			<point x="504" y="0" type="line"/>
			<point x="574" y="30" type="line"/>
			<point x="469" y="242" type="line"/>
			<point x="165" y="750" type="line"/>
			<point x="105" y="710" type="line"/>
			<point x="208" y="500" type="line"/>
		</contour>
		<contour>
			<point x="73" y="0" type="curve"/>
			<point x="172" y="0" type="line"/>
			<point x="172" y="0"/>
			<point x="165" y="137"/>
			<point x="165" y="335" type="curve" smooth="yes"/>
			<point x="165" y="750" type="line"/>
			<point x="70" y="750" type="line"/>
			<point x="70" y="750"/>
			<point x="80" y="616"/>
			<point x="80" y="415" type="curve" smooth="yes"/>
			<point x="80" y="335" type="line" smooth="yes"/>
			<point x="80" y="137"/>
			<point x="73" y="0"/>
		</contour>
		<contour>
			<point x="504" y="0" type="curve"/>
			<point x="596" y="0" type="line"/>
			<point x="596" y="0"/>
			<point x="589" y="137"/>
			<point x="589" y="335" type="curve" smooth="yes"/>
			<point x="589" y="415" type="line" smooth="yes"/>
			<point x="589" y="616"/>
			<point x="599" y="750"/>
			<point x="599" y="750" type="curve"/>
			<point x="494" y="750" type="line"/>
			<point x="494" y="750"/>
			<point x="504" y="616"/>
			<point x="504" y="415" type="curve" smooth="yes"/>
			<point x="508" y="277"/>
			<point x="504" y="0"/>
		</contour>
	</outline>
</glyph>
<glyph name="O" format="2">
	<advance width="745"/>
	<unicode hex="004F"/>
	<anchor x="373" y="750" name="top"/>
	<anchor x="373" y="0" name="bottom"/>
	<anchor x="373" y="375" name="center"/>
	<anchor x="715" y="750" name="topright"/>
	<anchor x="663" y="10" name="ogonek"/>
	<anchor x="30" y="750" name="topleft"/>
	<outline>
		<contour>
			<point x="375" y="-16" type="curve" smooth="yes"/>
			<point x="533" y="-16"/>
			<point x="695" y="77"/>
			<point x="695" y="375" type="curve" smooth="yes"/>
			<point x="695" y="673"/>
			<point x="533" y="766"/>
			<point x="375" y="766" type="curve" smooth="yes"/>
			<point x="217" y="766"/>
			<point x="50" y="673"/>
			<point x="50" y="375" type="curve" smooth="yes"/>
			<point x="50" y="77"/>
			<point x="217" y="-16"/>
		</contour>
		<contour>
			<point x="375" y="64" type="curve" smooth="yes"/>
			<point x="272" y="64"/>
			<point x="155" y="136"/>
			<point x="155" y="375" type="curve" smooth="yes"/>
			<point x="155" y="614"/>
			<point x="272" y="686"/>
			<point x="375" y="686" type="curve" smooth="yes"/>
			<point x="478" y="686"/>
			<point x="590" y="614"/>
			<point x="590" y="375" type="curve" smooth="yes"/>
			<point x="590" y="136"/>
			<point x="478" y="64"/>
		</contour>
	</outline>
</glyph>
<glyph name="S" format="2">
	<advance width="634"/>
	<unicode hex="0053"/>
	<anchor x="317" y="750" name="top"/>
	<anchor x="317" y="0" name="bottom"/>
	<outline>
		<contour>
			<point x="323" y="-15" type="curve" smooth="yes"/>
			<point x="477" y="-15"/>
			<point x="579" y="64"/>
			<point x="579" y="186" type="curve" smooth="yes"/>
			<point x="579" y="316"/>
			<point x="463" y="383"/>
			<point x="364" y="433" type="curve" smooth="yes"/>
			<point x="262" y="485"/>
			<point x="195" y="507"/>
			<point x="190" y="578" type="curve" smooth="yes"/>
			<point x="186" y="635"/>
			<point x="229" y="684"/>
			<point x="331" y="684" type="curve" smooth="yes"/>
			<point x="457" y="684"/>
			<point x="509" y="609"/>
			<point x="509" y="609" type="curve"/>
			<point x="509" y="609"/>
			<point x="525" y="621"/>
			<point x="541" y="644" type="curve" smooth="yes"/>
			<point x="558" y="669"/>
			<point x="556" y="688"/>
			<point x="556" y="688" type="curve"/>
			<point x="530" y="715"/>
			<point x="460" y="766"/>
			<point x="332" y="766" type="curve" smooth="yes"/>
			<point x="185" y="766"/>
			<point x="88" y="699"/>
			<point x="88" y="575" type="curve" smooth="yes"/>
			<point x="88" y="445"/>
			<point x="196" y="409"/>
			<point x="313" y="348" type="curve" smooth="yes"/>
			<point x="402" y="302"/>
			<point x="474" y="256"/>
			<point x="474" y="182" type="curve" smooth="yes"/>
			<point x="474" y="111"/>
			<point x="409" y="71"/>
			<point x="323" y="71" type="curve" smooth="yes"/>
			<point x="189" y="71"/>
			<point x="109" y="167"/>
			<point x="109" y="167" type="curve"/>
			<point x="109" y="167"/>
			<point x="89" y="156"/>
			<point x="75" y="138" type="curve" smooth="yes"/>
			<point x="53" y="111"/>
			<point x="50" y="87"/>
			<point x="50" y="87" type="curve"/>
			<point x="69" y="70"/>
			<point x="164" y="-15"/>
		</contour>
	</outline>
</glyph>
<glyph name="W" format="2">
	<advance width="1053"/>
	<unicode hex="0057"/>
	<anchor x="523" y="750" name="top"/>
	<anchor x="523" y="0" name="bottom"/>
	<outline>
		<contour>
			<point x="228" y="0" type="line"/>
			<point x="357" y="0" type="line"/>
			<point x="409" y="189" type="line"/>
			<point x="508" y="592" type="line"/>
			<point x="523" y="678" type="line"/>
			<point x="537" y="594" type="line"/>
			<point x="635" y="189" type="line"/>
			<point x="686" y="0" type="line"/>
			<point x="815" y="0" type="line"/>
			<point x="1033" y="750" type="line"/>
			<point x="1033" y="750"/>
			<point x="1005" y="757"/>
			<point x="966" y="757" type="curve" smooth="yes"/>
			<point x="930" y="757"/>
			<point x="911" y="750"/>
			<point x="911" y="750" type="curve"/>
			<point x="773" y="193" type="line"/>
			<point x="754" y="75" type="line"/>
			<point x="726" y="199" type="line"/>
			<point x="587" y="750" type="line"/>
			<point x="453" y="750" type="line"/>
			<point x="313" y="187" type="line"/>
			<point x="290" y="75" type="line"/>
			<point x="272" y="189" type="line"/>
			<point x="142" y="750" type="line"/>
			<point x="142" y="750"/>
			<point x="111" y="756"/>
			<point x="85" y="756" type="curve" smooth="yes"/>
			<point x="59" y="756"/>
			<point x="20" y="750"/>
			<point x="20" y="750" type="curve"/>
		</contour>
	</outline>
</glyph>
<glyph name="X" format="2">
	<advance width="628"/>
	<unicode hex="0058"/>
	<anchor x="314" y="750" name="top"/>
	<anchor x="314" y="0" name="bottom"/>
	<outline>
		<contour>
			<point x="20" y="1" type="curve"/>
			<point x="145" y="1" type="line"/>
			<point x="356" y="393" type="line"/>
			<point x="254" y="393" type="line"/>
			<point x="254" y="393"/>
			<point x="211" y="318"/>
			<point x="128" y="177" type="curve" smooth="yes"/>
			<point x="43" y="32"/>
			<point x="20" y="1"/>
		</contour>
		<contour>
			<point x="486" y="1" type="line"/>
			<point x="608" y="1" type="line" smooth="yes"/>
			<point x="611" y="1"/>
			<point x="585" y="35"/>
			<point x="501" y="181" type="curve" smooth="yes"/>
			<point x="416" y="329"/>
			<point x="377" y="393"/>
			<point x="377" y="393" type="curve"/>
			<point x="277" y="393" type="line"/>
		</contour>
		<contour>
			<point x="254" y="393" type="line"/>
			<point x="354" y="393" type="line"/>
			<point x="163" y="741" type="line"/>
			<point x="163" y="741"/>
			<point x="164" y="750"/>
			<point x="107" y="750" type="curve" smooth="yes"/>
			<point x="63" y="750"/>
			<point x="37" y="741"/>
			<point x="37" y="741" type="curve"/>
			<point x="37" y="741"/>
			<point x="61" y="710"/>
			<point x="149" y="566" type="curve" smooth="yes"/>
		</contour>
		<contour>
			<point x="278" y="393" type="line"/>
			<point x="377" y="393" type="line"/>
			<point x="377" y="393"/>
			<point x="401" y="421"/>
			<point x="483" y="566" type="curve" smooth="yes"/>
			<point x="565" y="711"/>
			<point x="597" y="750"/>
			<point x="597" y="741" type="curve"/>
			<point x="597" y="741"/>
			<point x="580" y="750"/>
			<point x="539" y="750" type="curve" smooth="yes"/>
			<point x="467" y="750"/>
			<point x="469" y="741"/>
			<point x="469" y="741" type="curve"/>
		</contour>
	</outline>
</glyph>
<glyph name="Y" format="2">
	<advance width="605"/>
	<unicode hex="0059"/>
	<anchor x="303" y="750" name="top"/>
	<anchor x="303" y="0" name="bottom"/>
	<anchor x="11" y="750" name="topleft"/>
	<outline>
		<contour>
			<point x="247" y="0" type="line"/>
			<point x="356" y="0" type="line" smooth="yes"/>
			<point x="357" y="0"/>
			<point x="349" y="264"/>
			<point x="349" y="264" type="curve"/>
			<point x="585" y="751" type="line"/>
			<point x="585" y="751"/>
			<point x="561" y="756"/>
			<point x="529" y="756" type="curve" smooth="yes"/>
			<point x="488" y="756"/>
			<point x="465" y="751"/>
			<point x="465" y="751" type="curve"/>
			<point x="305" y="365" type="line"/>
			<point x="141" y="751" type="line"/>
			<point x="141" y="751"/>
			<point x="124" y="756"/>
			<point x="82" y="756" type="curve" smooth="yes"/>
			<point x="46" y="756"/>
			<point x="20" y="751"/>
			<point x="20" y="751" type="curve"/>
			<point x="254" y="265" type="line"/>
		</contour>
	</outline>
</glyph>
<glyph name="b" format="2">
	<advance width="585"/>
	<unicode hex="0062"/>
	<anchor x="298" y="550" name="top"/>
	<anchor x="298" y="0" name="bottom"/>
	<anchor x="298" y="275" name="center"/>
	<outline>
		<contour>
			<point x="311" y="-16" type="curve" smooth="yes"/>
			<point x="445" y="-16"/>
			<point x="540" y="104"/>
			<point x="540" y="275" type="curve" smooth="yes"/>
			<point x="540" y="484"/>
			<point x="432" y="566"/>
			<point x="311" y="566" type="curve" smooth="yes"/>
			<point x="162" y="566"/>
			<point x="109" y="416"/>
			<point x="109" y="416" type="curve"/>
			<point x="165" y="335" type="line"/>
			<point x="165" y="428"/>
			<point x="224" y="485"/>
			<point x="291" y="485" type="curve" smooth="yes"/>
			<point x="377" y="485"/>
			<point x="439" y="430"/>
			<point x="439" y="275" type="curve" smooth="yes"/>
			<point x="439" y="151"/>
			<point x="376" y="67"/>
			<point x="289" y="67" type="curve" smooth="yes"/>
			<point x="204" y="67"/>
			<point x="165" y="153"/>
			<point x="165" y="252" type="curve"/>
			<point x="136" y="87" type="line"/>
			<point x="136" y="87"/>
			<point x="193" y="-16"/>
		</contour>
		<contour>
			<point x="73" y="0" type="curve"/>
			<point x="124" y="0" type="line"/>
			<point x="176" y="82" type="line"/>
			<point x="165" y="82" type="line"/>
			<point x="165" y="517" type="line" smooth="yes"/>
			<point x="165" y="741"/>
			<point x="178" y="797"/>
			<point x="178" y="797" type="curve"/>
			<point x="178" y="797"/>
			<point x="150" y="800"/>
			<point x="120" y="800" type="curve" smooth="yes"/>
			<point x="90" y="800"/>
			<point x="70" y="797"/>
			<point x="70" y="797" type="curve"/>
			<point x="70" y="797"/>
			<point x="75" y="706"/>
			<point x="75" y="436" type="curve" smooth="yes"/>
			<point x="75" y="288" type="line" smooth="yes"/>
			<point x="75" y="30"/>
			<point x="73" y="0"/>
		</contour>
	</outline>
</glyph>
<glyph name="c" format="2">
	<advance width="506"/>
	<unicode hex="0063"/>
	<outline>
		<contour>
			<point x="297" y="-15" type="curve" smooth="yes"/>
			<point x="409" y="-15"/>
			<point x="476" y="32"/>
			<point x="476" y="32" type="curve"/>
			<point x="476" y="86"/>
			<point x="444" y="113"/>
			<point x="444" y="113" type="curve"/>
			<point x="444" y="113"/>
			<point x="365" y="63"/>
			<point x="293" y="63" type="curve" smooth="yes"/>
			<point x="221" y="63"/>
			<point x="144" y="107"/>
			<point x="144" y="275" type="curve" smooth="yes"/>
			<point x="144" y="443"/>
			<point x="233" y="483"/>
			<point x="303" y="483" type="curve" smooth="yes"/>
			<point x="382" y="483"/>
			<point x="410" y="448"/>
			<point x="410" y="448" type="curve"/>
			<point x="426" y="457"/>
			<point x="453" y="503"/>
			<point x="453" y="530" type="curve"/>
			<point x="425" y="548"/>
			<point x="380" y="566"/>
			<point x="303" y="566" type="curve" smooth="yes"/>
			<point x="205" y="566"/>
			<point x="45" y="499"/>
			<point x="45" y="275" type="curve" smooth="yes"/>
			<point x="45" y="61"/>
			<point x="150" y="-15"/>
		</contour>
	</outline>
</glyph>
<glyph name="f" format="2">
	<advance width="378"/>
	<unicode hex="0066"/>
	<anchor x="183" y="800" name="top"/>
	<anchor x="183" y="0" name="bottom"/>
	<outline>
		<contour>
			<point x="154" y="-2" type="curve" smooth="yes"/>
			<point x="189" y="-2"/>
			<point x="205" y="0"/>
			<point x="205" y="0" type="curve"/>
			<point x="205" y="16"/>
			<point x="196" y="104"/>
			<point x="196" y="290" type="curve" smooth="yes"/>
			<point x="196" y="591" type="line" smooth="yes"/>
			<point x="196" y="691"/>
			<point x="222" y="735"/>
			<point x="278" y="735" type="curve" smooth="yes"/>
			<point x="323" y="735"/>
			<point x="350" y="704"/>
			<point x="350" y="704" type="curve"/>
			<point x="366" y="713"/>
			<point x="393" y="755"/>
			<point x="393" y="782" type="curve"/>
			<point x="367" y="804"/>
			<point x="332" y="816"/>
			<point x="285" y="816" type="curve" smooth="yes"/>
			<point x="173" y="816"/>
			<point x="106" y="746"/>
			<point x="106" y="601" type="curve" smooth="yes"/>
			<point x="106" y="286" type="line" smooth="yes"/>
			<point x="106" y="160"/>
			<point x="101" y="0"/>
			<point x="101" y="0" type="curve"/>
			<point x="101" y="0"/>
			<point x="123" y="-2"/>
		</contour>
		<contour>
			<point x="331" y="463" type="curve"/>
			<point x="336" y="493"/>
			<point x="337" y="522"/>
			<point x="332" y="552" type="curve"/>
			<point x="332" y="552"/>
			<point x="206" y="550"/>
			<point x="149" y="550" type="curve" smooth="yes"/>
			<point x="91" y="550"/>
			<point x="24" y="552"/>
			<point x="24" y="552" type="curve"/>
			<point x="18" y="523"/>
			<point x="18" y="493"/>
			<point x="24" y="464" type="curve"/>
			<point x="24" y="464"/>
			<point x="110" y="466"/>
			<point x="155" y="466" type="curve" smooth="yes"/>
			<point x="210" y="466"/>
			<point x="331" y="463"/>
		</contour>
	</outline>
</glyph>
<glyph name="g" format="2">
	<advance width="583"/>
	<unicode hex="0067"/>
	<anchor x="294" y="550" name="top"/>
	<anchor x="294" y="-200" name="bottom"/>
	<outline>
		<contour>
			<point x="267" y="-216" type="curve" smooth="yes"/>
			<point x="395" y="-216"/>
			<point x="521" y="-143"/>
			<point x="521" y="65" type="curve" smooth="yes"/>
			<point x="521" y="550" type="line"/>
			<point x="465" y="550" type="line"/>
			<point x="431" y="488" type="line"/>
			<point x="431" y="48" type="line" smooth="yes"/>
			<point x="431" y="-58"/>
			<point x="382" y="-141"/>
			<point x="268" y="-141" type="curve" smooth="yes"/>
			<point x="158" y="-141"/>
			<point x="102" y="-87"/>
			<point x="102" y="-87" type="curve"/>
			<point x="87" y="-103"/>
			<point x="67" y="-136"/>
			<point x="66" y="-174" type="curve"/>
			<point x="66" y="-174"/>
			<point x="133" y="-216"/>
		</contour>
		<contour>
			<point x="290" y="-16" type="curve" smooth="yes"/>
			<point x="421" y="-16"/>
			<point x="490" y="101"/>
			<point x="490" y="223" type="curve"/>
			<point x="431" y="215" type="line"/>
			<point x="431" y="128"/>
			<point x="367" y="64"/>
			<point x="299" y="64" type="curve" smooth="yes"/>
			<point x="230" y="64"/>
			<point x="143" y="136"/>
			<point x="143" y="275" type="curve" smooth="yes"/>
			<point x="143" y="391"/>
			<point x="202" y="485"/>
			<point x="300" y="485" type="curve" smooth="yes"/>
			<point x="391" y="485"/>
			<point x="431" y="406"/>
			<point x="431" y="341" type="curve"/>
			<point x="492" y="349" type="line"/>
			<point x="492" y="425"/>
			<point x="440" y="566"/>
			<point x="289" y="566" type="curve" smooth="yes"/>
			<point x="158" y="566"/>
			<point x="45" y="460"/>
			<point x="45" y="275" type="curve" smooth="yes"/>
			<point x="45" y="77"/>
			<point x="173" y="-16"/>
		</contour>
	</outline>
</glyph>
<glyph name="h" format="2">
	<advance width="573"/>
	<unicode hex="0068"/>
	<anchor x="291" y="800" name="top"/>
	<anchor x="291" y="0" name="bottom"/>
	<anchor x="291" y="400" name="center"/>
	<outline>
		<contour>
			<point x="438" y="-19" type="curve"/>
			<point x="482" y="-15"/>
			<point x="518" y="7"/>
			<point x="528" y="28" type="curve"/>
			<point x="528" y="28"/>
			<point x="502" y="61"/>
			<point x="502" y="152" type="curve" smooth="yes"/>
			<point x="502" y="352" type="line" smooth="yes"/>
			<point x="502" y="498"/>
			<point x="455" y="566"/>
			<point x="337" y="566" type="curve" smooth="yes"/>
			<point x="200" y="566"/>
			<point x="118" y="451"/>
			<point x="118" y="451" type="curve"/>
			<point x="154" y="416" type="line"/>
			<point x="154" y="406"/>
			<point x="220" y="477"/>
			<point x="304" y="477" type="curve" smooth="yes"/>
			<point x="384" y="477"/>
			<point x="412" y="423"/>
			<point x="412" y="329" type="curve" smooth="yes"/>
			<point x="412" y="130" type="line" smooth="yes"/>
			<point x="412" y="86"/>
			<point x="418" y="9"/>
		</contour>
		<contour>
			<point x="126" y="-2" type="curve" smooth="yes"/>
			<point x="161" y="-2"/>
			<point x="182" y="0"/>
			<point x="182" y="0" type="curve"/>
			<point x="182" y="0"/>
			<point x="167" y="104"/>
			<point x="167" y="290" type="curve" smooth="yes"/>
			<point x="167" y="412"/>
			<point x="179" y="461"/>
			<point x="179" y="461" type="curve"/>
			<point x="168" y="461" type="line"/>
			<point x="168" y="526" type="line"/>
			<point x="173" y="800" type="line"/>
			<point x="173" y="800"/>
			<point x="153" y="802"/>
			<point x="123" y="802" type="curve" smooth="yes"/>
			<point x="93" y="802"/>
			<point x="73" y="800"/>
			<point x="73" y="800" type="curve"/>
			<point x="76" y="737"/>
			<point x="77" y="645"/>
			<point x="77" y="526" type="curve" smooth="yes"/>
			<point x="77" y="286" type="line" smooth="yes"/>
			<point x="77" y="160"/>
			<point x="70" y="0"/>
			<point x="70" y="0" type="curve"/>
			<point x="70" y="0"/>
			<point x="95" y="-2"/>
		</contour>
	</outline>
</glyph>
<glyph name="i" format="2">
	<advance width="264"/>
	<unicode hex="0069"/>
	<anchor x="147" y="0" name="bottom"/>
	<outline>
		<contour>
			<point x="131" y="650" type="curve" smooth="yes"/>
			<point x="165" y="650"/>
			<point x="194" y="678"/>
			<point x="194" y="712" type="curve" smooth="yes"/>
			<point x="194" y="746"/>
			<point x="165" y="774"/>
			<point x="131" y="774" type="curve" smooth="yes"/>
			<point x="97" y="774"/>
			<point x="70" y="746"/>
			<point x="70" y="712" type="curve" smooth="yes"/>
			<point x="70" y="678"/>
			<point x="97" y="650"/>
		</contour>
		<component base="idotless" xOffset="23"/>
	</outline>
</glyph>
<glyph name="j" format="2">
	<advance width="266"/>
	<unicode hex="006A"/>
	<outline>
		<contour>
			<point x="96" y="-206" type="curve"/>
			<point x="144" y="-166"/>
			<point x="188" y="-88"/>
			<point x="188" y="36" type="curve" smooth="yes"/>
			<point x="188" y="282" type="line"/>
			<point x="194" y="550" type="line"/>
			<point x="87" y="550" type="line"/>
			<point x="95" y="278" type="line"/>
			<point x="95" y="72" type="line" smooth="yes"/>
			<point x="95" y="-55"/>
			<point x="56" y="-100"/>
			<point x="15" y="-148" type="curve"/>
			<point x="33" y="-168"/>
			<point x="67" y="-200"/>
		</contour>
		<contour>
			<point x="139" y="652" type="curve" smooth="yes"/>
			<point x="173" y="652"/>
			<point x="202" y="680"/>
			<point x="202" y="714" type="curve" smooth="yes"/>
			<point x="202" y="748"/>
			<point x="173" y="776"/>
			<point x="139" y="776" type="curve" smooth="yes"/>
			<point x="105" y="776"/>
			<point x="78" y="748"/>
			<point x="78" y="714" type="curve" smooth="yes"/>
			<point x="78" y="680"/>
			<point x="105" y="652"/>
		</contour>
	</outline>
</glyph>
<glyph name="m" format="2">
	<advance width="895"/>
	<unicode hex="006D"/>
	<anchor x="459" y="550" name="top"/>
	<anchor x="459" y="0" name="bottom"/>
	<outline>
		<contour>
			<point x="760" y="-22" type="curve"/>
			<point x="804" y="-18"/>
			<point x="840" y="4"/>
			<point x="850" y="25" type="curve"/>
			<point x="850" y="25"/>
			<point x="824" y="58"/>
			<point x="824" y="149" type="curve" smooth="yes"/>
			<point x="824" y="349" type="line" smooth="yes"/>
			<point x="824" y="495"/>
			<point x="778" y="563"/>
			<point x="669" y="563" type="curve" smooth="yes"/>
			<point x="532" y="563"/>
			<point x="450" y="448"/>
			<point x="450" y="448" type="curve"/>
			<point x="486" y="413" type="line"/>
			<point x="486" y="403"/>
			<point x="552" y="474"/>
			<point x="636" y="474" type="curve" smooth="yes"/>
			<point x="709" y="474"/>
			<point x="734" y="420"/>
			<point x="734" y="326" type="curve" smooth="yes"/>
			<point x="734" y="127" type="line" smooth="yes"/>
			<point x="734" y="83"/>
			<point x="740" y="6"/>
		</contour>
		<contour>
			<point x="70" y="0" type="curve"/>
			<point x="179" y="0" type="line"/>
			<point x="179" y="0"/>
			<point x="165" y="104"/>
			<point x="165" y="290" type="curve" smooth="yes"/>
			<point x="165" y="412"/>
			<point x="177" y="461"/>
			<point x="177" y="461" type="curve"/>
			<point x="128" y="550" type="line"/>
			<point x="71" y="550" type="line"/>
			<point x="71" y="550"/>
			<point x="75" y="397"/>
			<point x="75" y="286" type="curve" smooth="yes"/>
			<point x="75" y="160"/>
			<point x="70" y="0"/>
		</contour>
		<contour>
			<point x="393" y="0" type="curve"/>
			<point x="502" y="0" type="line"/>
			<point x="499" y="30"/>
			<point x="492" y="90"/>
			<point x="492" y="152" type="curve" smooth="yes"/>
			<point x="492" y="364" type="line" smooth="yes"/>
			<point x="492" y="498"/>
			<point x="444" y="566"/>
			<point x="327" y="566" type="curve" smooth="yes"/>
			<point x="196" y="566"/>
			<point x="118" y="451"/>
			<point x="118" y="451" type="curve"/>
			<point x="154" y="416" type="line"/>
			<point x="154" y="406"/>
			<point x="216" y="477"/>
			<point x="294" y="477" type="curve" smooth="yes"/>
			<point x="374" y="477"/>
			<point x="402" y="423"/>
			<point x="402" y="329" type="curve" smooth="yes"/>
			<point x="402" y="152" type="line" smooth="yes"/>
			<point x="402" y="86"/>
			<point x="396" y="33"/>
		</contour>
	</outline>
</glyph>
<glyph name="n" format="2">
	<advance width="574"/>
	<unicode hex="006E"/>
	<anchor x="305" y="550" name="top"/>
	<anchor x="291" y="0" name="bottom"/>
	<outline>
		<contour>
			<point x="439" y="-19" type="curve"/>
			<point x="483" y="-15"/>
			<point x="519" y="7"/>
			<point x="529" y="28" type="curve"/>
			<point x="529" y="28"/>
			<point x="503" y="61"/>
			<point x="503" y="152" type="curve" smooth="yes"/>
			<point x="503" y="352" type="line" smooth="yes"/>
			<point x="503" y="498"/>
			<point x="456" y="566"/>
			<point x="338" y="566" type="curve" smooth="yes"/>
			<point x="201" y="566"/>
			<point x="119" y="451"/>
			<point x="119" y="451" type="curve"/>
			<point x="155" y="416" type="line"/>
			<point x="155" y="406"/>
			<point x="221" y="477"/>
			<point x="305" y="477" type="curve" smooth="yes"/>
			<point x="385" y="477"/>
			<point x="413" y="423"/>
			<point x="413" y="329" type="curve" smooth="yes"/>
			<point x="413" y="130" type="line" smooth="yes"/>
			<point x="413" y="86"/>
			<point x="419" y="9"/>
		</contour>
		<contour>
			<point x="68" y="0" type="curve"/>
			<point x="177" y="0" type="line"/>
			<point x="177" y="0"/>
			<point x="165" y="111"/>
			<point x="165" y="278" type="curve" smooth="yes"/>
			<point x="165" y="419"/>
			<point x="177" y="461"/>
			<point x="177" y="461" type="curve"/>
			<point x="128" y="550" type="line"/>
			<point x="71" y="550" type="line"/>
			<point x="71" y="550"/>
			<point x="75" y="408"/>
			<point x="75" y="269" type="curve" smooth="yes"/>
			<point x="75" y="171"/>
			<point x="68" y="0"/>
		</contour>
	</outline>
</glyph>
<glyph name="q" format="2">
	<advance width="578"/>
	<unicode hex="0071"/>
	<anchor x="284" y="550" name="top"/>
	<anchor x="284" y="0" name="bottom"/>
	<outline>
		<contour>
			<point x="279" y="-16" type="curve" smooth="yes"/>
			<point x="407" y="-16"/>
			<point x="477" y="100"/>
			<point x="477" y="223" type="curve"/>
			<point x="418" y="215" type="line"/>
			<point x="418" y="128"/>
			<point x="354" y="64"/>
			<point x="286" y="64" type="curve" smooth="yes"/>
			<point x="217" y="64"/>
			<point x="143" y="136"/>
			<point x="143" y="275" type="curve" smooth="yes"/>
			<point x="143" y="391"/>
			<point x="189" y="485"/>
			<point x="287" y="485" type="curve" smooth="yes"/>
			<point x="378" y="485"/>
			<point x="418" y="406"/>
			<point x="418" y="341" type="curve"/>
			<point x="479" y="349" type="line"/>
			<point x="479" y="425"/>
			<point x="427" y="566"/>
			<point x="276" y="566" type="curve" smooth="yes"/>
			<point x="145" y="566"/>
			<point x="45" y="460"/>
			<point x="45" y="275" type="curve" smooth="yes"/>
			<point x="45" y="77"/>
			<point x="160" y="-16"/>
		</contour>
		<contour>
			<point x="488" y="-216" type="curve"/>
			<point x="508" y="-188"/>
			<point x="508" y="-99"/>
			<point x="508" y="-55" type="curve" smooth="yes"/>
			<point x="508" y="553" type="line"/>
			<point x="452" y="553" type="line"/>
			<point x="418" y="488" type="line"/>
			<point x="418" y="-45" type="line" smooth="yes"/>
			<point x="418" y="-120"/>
			<point x="399" y="-185"/>
			<point x="399" y="-185" type="curve"/>
			<point x="413" y="-205"/>
			<point x="449" y="-216"/>
		</contour>
	</outline>
</glyph>
<glyph name="r" format="2">
	<advance width="390"/>
	<unicode hex="0072"/>
	<anchor x="194" y="550" name="top"/>
	<anchor x="194" y="0" name="bottom"/>
	<outline>
		<contour>
			<point x="164" y="321" type="line"/>
			<point x="164" y="414"/>
			<point x="202" y="480"/>
			<point x="268" y="480" type="curve" smooth="yes"/>
			<point x="311" y="480"/>
			<point x="333" y="453"/>
			<point x="333" y="453" type="curve"/>
			<point x="352" y="471"/>
			<point x="370" y="505"/>
			<point x="375" y="534" type="curve"/>
			<point x="375" y="534"/>
			<point x="338" y="566"/>
			<point x="281" y="566" type="curve" smooth="yes"/>
			<point x="180" y="566"/>
			<point x="126" y="465"/>
			<point x="116" y="340" type="curve"/>
		</contour>
		<contour>
			<point x="121" y="-2" type="curve" smooth="yes"/>
			<point x="156" y="-2"/>
			<point x="180" y="0"/>
			<point x="180" y="0" type="curve"/>
			<point x="180" y="0"/>
			<point x="164" y="104"/>
			<point x="164" y="290" type="curve" smooth="yes"/>
			<point x="164" y="481" type="line"/>
			<point x="127" y="550" type="line"/>
			<point x="70" y="550" type="line"/>
			<point x="70" y="550"/>
			<point x="74" y="408"/>
			<point x="74" y="269" type="curve" smooth="yes"/>
			<point x="74" y="171"/>
			<point x="68" y="0"/>
			<point x="68" y="0" type="curve"/>
			<point x="68" y="0"/>
			<point x="90" y="-2"/>
		</contour>
	</outline>
</glyph>
<glyph name="u" format="2">
	<advance width="574"/>
	<unicode hex="0075"/>
	<anchor x="289" y="550" name="top"/>
	<anchor x="289" y="0" name="bottom"/>
	<anchor x="513" y="10" name="ogonek"/>
	<anchor x="549" y="550" name="topright"/>
	<outline>
		<contour>
			<point x="233" y="-15" type="curve" smooth="yes"/>
			<point x="370" y="-15"/>
			<point x="449" y="100"/>
			<point x="449" y="100" type="curve"/>
			<point x="413" y="131" type="line"/>
			<point x="401" y="123"/>
			<point x="350" y="74"/>
			<point x="266" y="74" type="curve" smooth="yes"/>
			<point x="186" y="74"/>
			<point x="157" y="128"/>
			<point x="158" y="222" type="curve" smooth="yes"/>
			<point x="160" y="396" type="line" smooth="yes"/>
			<point x="161" y="440"/>
			<point x="164" y="512"/>
			<point x="164" y="550" type="curve"/>
			<point x="142" y="556"/>
			<point x="82" y="557"/>
			<point x="63" y="551" type="curve"/>
			<point x="65" y="509"/>
			<point x="65" y="456"/>
			<point x="66" y="395" type="curve" smooth="yes"/>
			<point x="68" y="199" type="line" smooth="yes"/>
			<point x="69" y="53"/>
			<point x="115" y="-15"/>
		</contour>
		<contour>
			<point x="439" y="-19" type="curve"/>
			<point x="483" y="-15"/>
			<point x="519" y="7"/>
			<point x="529" y="28" type="curve"/>
			<point x="529" y="28"/>
			<point x="503" y="61"/>
			<point x="503" y="152" type="curve" smooth="yes"/>
			<point x="503" y="281" type="line"/>
			<point x="508" y="550" type="line"/>
			<point x="508" y="550"/>
			<point x="488" y="552"/>
			<point x="458" y="552" type="curve" smooth="yes"/>
			<point x="428" y="552"/>
			<point x="408" y="550"/>
			<point x="408" y="550" type="curve"/>
			<point x="411" y="487"/>
			<point x="413" y="386"/>
			<point x="413" y="281" type="curve" smooth="yes"/>
			<point x="413" y="134" type="line" smooth="yes"/>
			<point x="413" y="90"/>
			<point x="419" y="9"/>
		</contour>
	</outline>
</glyph>
<glyph name="w" format="2">
	<advance width="790"/>
	<unicode hex="0077"/>
	<anchor x="395" y="550" name="top"/>
	<anchor x="395" y="0" name="bottom"/>
	<outline>
		<contour>
			<point x="524" y="0" type="line"/>
			<point x="620" y="0" type="line"/>
			<point x="770" y="550" type="line"/>
			<point x="738" y="560"/>
			<point x="705" y="562"/>
			<point x="671" y="550" type="curve"/>
			<point x="599" y="275" type="line"/>
			<point x="558" y="47" type="line"/>
			<point x="526" y="57" type="line"/>
		</contour>
		<contour>
			<point x="170" y="0" type="line"/>
			<point x="266" y="0" type="line"/>
			<point x="264" y="57" type="line"/>
			<point x="232" y="47" type="line"/>
			<point x="191" y="275" type="line"/>
			<point x="119" y="550" type="line"/>
			<point x="84" y="560"/>
			<point x="52" y="557"/>
			<point x="20" y="550" type="curve"/>
		</contour>
		<contour>
			<point x="188" y="0" type="line"/>
			<point x="289" y="0" type="line"/>
			<point x="337" y="211" type="line"/>
			<point x="395" y="477" type="line"/>
			<point x="430" y="550" type="line"/>
			<point x="338" y="550" type="line"/>
			<point x="265" y="249" type="line"/>
			<point x="222" y="47" type="line"/>
			<point x="200" y="57" type="line"/>
		</contour>
		<contour>
			<point x="501" y="0" type="line"/>
			<point x="602" y="0" type="line"/>
			<point x="590" y="57" type="line"/>
			<point x="568" y="47" type="line"/>
			<point x="525" y="249" type="line"/>
			<point x="452" y="550" type="line"/>
			<point x="360" y="550" type="line"/>
			<point x="395" y="477" type="line"/>
			<point x="453" y="211" type="line"/>
		</contour>
	</outline>
</glyph>
<glyph name="x" format="2">
	<advance width="508"/>
	<unicode hex="0078"/>
	<anchor x="254" y="550" name="top"/>
	<anchor x="254" y="0" name="bottom"/>
	<outline>
		<contour>
			<point x="74" y="-3" type="curve" smooth="yes"/>
			<point x="114" y="-3"/>
			<point x="131" y="0"/>
			<point x="131" y="0" type="curve"/>
			<point x="300" y="289" type="line"/>
			<point x="195" y="289" type="line"/>
			<point x="99" y="129" type="line" smooth="yes"/>
			<point x="34" y="20"/>
			<point x="20" y="0"/>
			<point x="20" y="0" type="curve"/>
			<point x="20" y="0"/>
			<point x="39" y="-3"/>
		</contour>
		<contour>
			<point x="438" y="-3" type="curve" smooth="yes"/>
			<point x="471" y="-3"/>
			<point x="488" y="0"/>
			<point x="488" y="0" type="curve"/>
			<point x="490" y="0"/>
			<point x="472" y="23"/>
			<point x="410" y="132" type="curve" smooth="yes"/>
			<point x="347" y="243"/>
			<point x="315" y="289"/>
			<point x="315" y="289" type="curve"/>
			<point x="212" y="289" type="line"/>
			<point x="379" y="0" type="line"/>
			<point x="379" y="0"/>
			<point x="395" y="-3"/>
		</contour>
		<contour>
			<point x="195" y="289" type="curve"/>
			<point x="288" y="289" type="line"/>
			<point x="145" y="550" type="line"/>
			<point x="145" y="550"/>
			<point x="136" y="556"/>
			<point x="92" y="556" type="curve" smooth="yes"/>
			<point x="54" y="556"/>
			<point x="34" y="550"/>
			<point x="34" y="550" type="curve"/>
			<point x="34" y="550"/>
			<point x="43" y="530"/>
			<point x="113" y="420" type="curve" smooth="yes"/>
			<point x="183" y="310"/>
			<point x="195" y="289"/>
		</contour>
		<contour>
			<point x="223" y="289" type="line"/>
			<point x="315" y="289" type="line"/>
			<point x="398" y="420" type="line" smooth="yes"/>
			<point x="466" y="527"/>
			<point x="477" y="556"/>
			<point x="477" y="550" type="curve"/>
			<point x="477" y="550"/>
			<point x="465" y="556"/>
			<point x="430" y="556" type="curve" smooth="yes"/>
			<point x="374" y="556"/>
			<point x="366" y="550"/>
			<point x="366" y="550" type="curve"/>
		</contour>
	</outline>
</glyph>
<glyph name="y" format="2">
	<advance width="539"/>
	<unicode hex="0079"/>
	<outline>
		<contour>
			<point x="208" y="-209" type="curve"/>
			<point x="208" y="-209"/>
			<point x="265" y="-170"/>
			<point x="310" y="-65" type="curve" smooth="yes"/>
			<point x="347" y="22"/>
			<point x="348" y="39"/>
			<point x="426" y="275" type="curve" smooth="yes"/>
			<point x="497" y="490"/>
			<point x="519" y="550"/>
			<point x="519" y="550" type="curve"/>
			<point x="519" y="550"/>
			<point x="500" y="558"/>
			<point x="465" y="558" type="curve" smooth="yes"/>
			<point x="430" y="558"/>
			<point x="420" y="550"/>
			<point x="420" y="550" type="curve"/>
			<point x="254" y="13" type="line" smooth="yes"/>
			<point x="225" y="-81"/>
			<point x="179" y="-123"/>
			<point x="137" y="-143" type="curve" smooth="yes"/>
			<point x="132" y="-145"/>
			<point x="143" y="-171"/>
			<point x="161" y="-189" type="curve" smooth="yes"/>
			<point x="179" y="-207"/>
			<point x="208" y="-209"/>
		</contour>
		<contour>
			<point x="249" y="-6" type="line"/>
			<point x="249" y="-6"/>
			<point x="283" y="76"/>
			<point x="291" y="109" type="curve"/>
			<point x="129" y="550" type="line"/>
			<point x="129" y="550"/>
			<point x="119" y="558"/>
			<point x="72" y="558" type="curve" smooth="yes"/>
			<point x="37" y="558"/>
			<point x="20" y="550"/>
			<point x="20" y="550" type="curve"/>
		</contour>
	</outline>
</glyph>
<glyph name="dieresis" format="2">
	<advance width="534"/>
	<unicode hex="00A8"/>
	<anchor x="267" y="586" name="_top"/>
	<outline>
		<contour>
			<point x="403" y="632" type="curve" smooth="yes"/>
			<point x="437" y="632"/>
			<point x="464" y="660"/>
			<point x="464" y="694" type="curve" smooth="yes"/>
			<point x="464" y="728"/>
			<point x="437" y="754"/>
			<point x="403" y="754" type="curve" smooth="yes"/>
			<point x="369" y="754"/>
			<point x="342" y="728"/>
			<point x="342" y="694" type="curve" smooth="yes"/>
			<point x="342" y="660"/>
			<point x="369" y="632"/>
		</contour>
		<contour>
			<point x="131" y="632" type="curve" smooth="yes"/>
			<point x="165" y="632"/>
			<point x="192" y="660"/>
			<point x="192" y="694" type="curve" smooth="yes"/>
			<point x="192" y="728"/>
			<point x="165" y="754"/>
			<point x="131" y="754" type="curve" smooth="yes"/>
			<point x="97" y="754"/>
			<point x="70" y="728"/>
			<point x="70" y="694" type="curve" smooth="yes"/>
			<point x="70" y="660"/>
			<point x="97" y="632"/>
		</contour>
	</outline>
</glyph>
<glyph name="acute" format="2">
	<advance width="310"/>
	<unicode hex="00B4"/>
	<anchor x="52" y="569" name="_top"/>
	<outline>
		<contour>
			<point x="53" y="614" type="curve"/>
			<point x="284" y="724" type="line"/>
			<point x="290" y="762"/>
			<point x="261" y="806"/>
			<point x="225" y="806" type="curve"/>
			<point x="28" y="660" type="line"/>
			<point x="30" y="642"/>
			<point x="39" y="622"/>
		</contour>
	</outline>
</glyph>
<glyph name="idotless" format="2">
	<advance width="230"/>
	<unicode hex="0131"/>
	<anchor x="115" y="550" name="top"/>
	<anchor x="115" y="0" name="bottom"/>
	<anchor x="179" y="21" name="ogonek"/>
	<outline>
		<contour>
			<point x="115" y="-2" type="curve" smooth="yes"/>
			<point x="145" y="-2"/>
			<point x="165" y="0"/>
			<point x="165" y="0" type="curve"/>
			<point x="162" y="63"/>
			<point x="160" y="154"/>
			<point x="160" y="273" type="curve" smooth="yes"/>
			<point x="160" y="279" type="line"/>
			<point x="165" y="553" type="line"/>
			<point x="165" y="553"/>
			<point x="145" y="555"/>
			<point x="115" y="555" type="curve" smooth="yes"/>
			<point x="85" y="555"/>
			<point x="65" y="553"/>
			<point x="65" y="553" type="curve"/>
			<point x="68" y="490"/>
			<point x="70" y="398"/>
			<point x="70" y="279" type="curve" smooth="yes"/>
			<point x="70" y="273" type="line"/>
			<point x="65" y="0" type="line"/>
			<point x="65" y="0"/>
			<point x="85" y="-2"/>
		</contour>
	</outline>
</glyph>
<glyph name="tilde" format="2">
	<advance width="420"/>
	<unicode hex="02DC"/>
	<anchor x="205" y="566" name="_top"/>
	<outline>
		<contour>
			<point x="269" y="619" type="curve" smooth="yes"/>
			<point x="344" y="611"/>
			<point x="389" y="667"/>
			<point x="411" y="709" type="curve"/>
			<point x="392" y="733"/>
			<point x="368" y="749"/>
			<point x="350" y="752" type="curve"/>
			<point x="345" y="733"/>
			<point x="334" y="698"/>
			<point x="291" y="698" type="curve" smooth="yes"/>
			<point x="237" y="698"/>
			<point x="231" y="754"/>
			<point x="157" y="763" type="curve" smooth="yes"/>
			<point x="66" y="774"/>
			<point x="17" y="700"/>
			<point x="7" y="671" type="curve"/>
			<point x="26" y="647"/>
			<point x="53" y="632"/>
			<point x="68" y="630" type="curve"/>
			<point x="72" y="654"/>
			<point x="92" y="689"/>
			<point x="134" y="684" type="curve" smooth="yes"/>
			<point x="188" y="679"/>
			<point x="200" y="626"/>
		</contour>
	</outline>
</glyph>
<glyph name="upDownArrow" format="2">
	<advance width="755"/>
	<unicode hex="2195"/>
	<outline>
		<contour>
			<point x="618" y="473" type="curve"/>
			<point x="618" y="473"/>
			<point x="641" y="489"/>
			<point x="666" y="515" type="curve" smooth="yes"/>
			<point x="693" y="540"/>
			<point x="705" y="558"/>
			<point x="705" y="558" type="curve"/>
			<point x="705" y="558"/>
			<point x="525" y="726"/>
			<point x="466" y="782" type="curve" smooth="yes"/>
			<point x="378" y="869" type="line"/>
			<point x="313" y="806" type="line"/>
			<point x="398" y="717" type="line" smooth="yes"/>
			<point x="454" y="656"/>
			<point x="618" y="473"/>
		</contour>
		<contour>
			<point x="377" y="-190" type="curve"/>
			<point x="442" y="-127" type="line"/>
			<point x="357" y="-38" type="line" smooth="yes"/>
			<point x="301" y="22"/>
			<point x="137" y="206"/>
			<point x="137" y="206" type="curve"/>
			<point x="137" y="206"/>
			<point x="114" y="190"/>
			<point x="89" y="164" type="curve" smooth="yes"/>
			<point x="62" y="139"/>
			<point x="50" y="121"/>
			<point x="50" y="121" type="curve"/>
			<point x="50" y="121"/>
			<point x="230" y="-47"/>
			<point x="289" y="-103" type="curve" smooth="yes"/>
			<point x="312" y="-125"/>
			<point x="377" y="-190"/>
		</contour>
		<contour>
			<point x="378" y="-190" type="line"/>
			<point x="466" y="-103" type="line" smooth="yes"/>
			<point x="525" y="-47"/>
			<point x="705" y="121"/>
			<point x="705" y="121" type="curve"/>
			<point x="705" y="121"/>
			<point x="693" y="139"/>
			<point x="666" y="164" type="curve" smooth="yes"/>
			<point x="641" y="190"/>
			<point x="618" y="206"/>
			<point x="618" y="206" type="curve"/>
			<point x="618" y="206"/>
			<point x="454" y="22"/>
			<point x="398" y="-38" type="curve" smooth="yes"/>
			<point x="313" y="-127" type="line"/>
		</contour>
		<contour>
			<point x="332" y="-72" type="line"/>
			<point x="422" y="-72" type="line"/>
			<point x="422" y="-72"/>
			<point x="421" y="278"/>
			<point x="421" y="377" type="curve" smooth="yes"/>
			<point x="421" y="751" type="line"/>
			<point x="331" y="751" type="line"/>
			<point x="330" y="369" type="line"/>
		</contour>
		<contour>
			<point x="137" y="473" type="curve"/>
			<point x="137" y="473"/>
			<point x="301" y="656"/>
			<point x="357" y="717" type="curve" smooth="yes"/>
			<point x="442" y="806" type="line"/>
			<point x="377" y="869" type="line"/>
			<point x="377" y="869"/>
			<point x="312" y="804"/>
			<point x="289" y="782" type="curve" smooth="yes"/>
			<point x="230" y="726"/>
			<point x="50" y="558"/>
			<point x="50" y="558" type="curve"/>
			<point x="50" y="558"/>
			<point x="62" y="540"/>
			<point x="89" y="515" type="curve" smooth="yes"/>
			<point x="114" y="489"/>
			<point x="137" y="473"/>
		</contour>
	</outline>
</glyph>
<glyph name="Cooperativa" format="2">
	<advance width="1004"/>
	<outline>
		<contour>
			<point x="548" y="-200" type="curve" smooth="yes"/>
			<point x="924" y="-200" type="line" smooth="yes"/>
			<point x="932" y="-200"/>
			<point x="944" y="-192"/>
			<point x="944" y="-180" type="curve" smooth="yes"/>
			<point x="944" y="582" type="line" smooth="yes"/>
			<point x="944" y="597"/>
			<point x="936" y="608"/>
			<point x="924" y="608" type="curve" smooth="yes"/>
			<point x="627" y="608" type="line"/>
			<point x="600" y="751" type="line" smooth="yes"/>
			<point x="599" y="757"/>
			<point x="594" y="763"/>
			<point x="588" y="765" type="curve" smooth="yes"/>
			<point x="511" y="797" type="line" smooth="yes"/>
			<point x="501" y="802"/>
			<point x="489" y="797"/>
			<point x="485" y="787" type="curve" smooth="yes"/>
			<point x="481" y="777"/>
			<point x="485" y="765"/>
			<point x="496" y="761" type="curve" smooth="yes"/>
			<point x="563" y="733" type="line"/>
			<point x="587" y="608" type="line"/>
			<point x="492" y="608" type="line" smooth="yes"/>
			<point x="479" y="608"/>
			<point x="472" y="600"/>
			<point x="472" y="588" type="curve" smooth="yes"/>
			<point x="472" y="366" type="line" smooth="yes"/>
			<point x="472" y="356"/>
			<point x="480" y="347"/>
			<point x="492" y="347" type="curve" smooth="yes"/>
			<point x="502" y="347"/>
			<point x="512" y="357"/>
			<point x="512" y="367" type="curve" smooth="yes"/>
			<point x="512" y="568" type="line"/>
			<point x="904" y="568" type="line"/>
			<point x="904" y="-160" type="line"/>
			<point x="549" y="-160" type="line" smooth="yes"/>
			<point x="539" y="-160"/>
			<point x="529" y="-167"/>
			<point x="529" y="-180" type="curve" smooth="yes"/>
			<point x="529" y="-193"/>
			<point x="538" y="-200"/>
		</contour>
		<contour>
			<point x="258" y="-200" type="curve" smooth="yes"/>
			<point x="314" y="-200"/>
			<point x="310" y="-189"/>
			<point x="340" y="-189" type="curve" smooth="yes"/>
			<point x="370" y="-189"/>
			<point x="366" y="-200"/>
			<point x="422" y="-200" type="curve" smooth="yes"/>
			<point x="518" y="-200"/>
			<point x="620" y="-31"/>
			<point x="620" y="94" type="curve" smooth="yes"/>
			<point x="620" y="217"/>
			<point x="566" y="319"/>
			<point x="468" y="319" type="curve" smooth="yes"/>
			<point x="397" y="319"/>
			<point x="378" y="273"/>
			<point x="340" y="273" type="curve" smooth="yes"/>
			<point x="302" y="273"/>
			<point x="283" y="319"/>
			<point x="212" y="319" type="curve" smooth="yes"/>
			<point x="114" y="319"/>
			<point x="60" y="217"/>
			<point x="60" y="94" type="curve" smooth="yes"/>
			<point x="60" y="-31"/>
			<point x="162" y="-200"/>
		</contour>
		<contour>
			<point x="258" y="-160" type="curve" smooth="yes"/>
			<point x="202" y="-160"/>
			<point x="100" y="-21"/>
			<point x="100" y="94" type="curve" smooth="yes"/>
			<point x="100" y="211"/>
			<point x="150" y="279"/>
			<point x="212" y="279" type="curve" smooth="yes"/>
			<point x="284" y="279"/>
			<point x="283" y="233"/>
			<point x="340" y="233" type="curve" smooth="yes"/>
			<point x="397" y="233"/>
			<point x="396" y="279"/>
			<point x="468" y="279" type="curve" smooth="yes"/>
			<point x="530" y="279"/>
			<point x="580" y="211"/>
			<point x="580" y="94" type="curve" smooth="yes"/>
			<point x="580" y="-21"/>
			<point x="478" y="-160"/>
			<point x="422" y="-160" type="curve" smooth="yes"/>
			<point x="376" y="-160"/>
			<point x="386" y="-149"/>
			<point x="340" y="-149" type="curve" smooth="yes"/>
			<point x="294" y="-149"/>
			<point x="304" y="-160"/>
		</contour>
		<contour>
			<point x="340" y="157" type="curve" smooth="yes"/>
			<point x="393" y="157"/>
			<point x="422" y="181"/>
			<point x="425" y="183" type="curve" smooth="yes"/>
			<point x="434" y="191"/>
			<point x="434" y="203"/>
			<point x="427" y="211" type="curve" smooth="yes"/>
			<point x="421" y="219"/>
			<point x="409" y="220"/>
			<point x="400" y="214" type="curve" smooth="yes"/>
			<point x="398" y="213"/>
			<point x="378" y="197"/>
			<point x="340" y="197" type="curve" smooth="yes"/>
			<point x="300" y="197"/>
			<point x="278" y="209"/>
			<point x="275" y="211" type="curve" smooth="yes"/>
			<point x="267" y="215"/>
			<point x="255" y="213"/>
			<point x="249" y="203" type="curve" smooth="yes"/>
			<point x="243" y="193"/>
			<point x="247" y="182"/>
			<point x="255" y="176" type="curve" smooth="yes"/>
			<point x="259" y="173"/>
			<point x="289" y="157"/>
		</contour>
		<contour>
			<point x="346" y="246" type="curve" smooth="yes"/>
			<point x="357" y="246"/>
			<point x="366" y="256"/>
			<point x="365" y="267" type="curve" smooth="yes"/>
			<point x="363" y="327"/>
			<point x="396" y="388"/>
			<point x="422" y="397" type="curve" smooth="yes"/>
			<point x="432" y="401"/>
			<point x="438" y="412"/>
			<point x="434" y="423" type="curve" smooth="yes"/>
			<point x="431" y="433"/>
			<point x="419" y="438"/>
			<point x="409" y="435" type="curve" smooth="yes"/>
			<point x="354" y="416"/>
			<point x="323" y="333"/>
			<point x="325" y="265" type="curve" smooth="yes"/>
			<point x="326" y="254"/>
			<point x="335" y="246"/>
		</contour>
	</outline>
</glyph>
<glyph name="Cubrebocas" format="2">
	<advance width="980"/>
	<outline>
		<contour>
			<point x="162" y="255" type="curve" smooth="yes"/>
			<point x="173" y="255"/>
			<point x="182" y="264"/>
			<point x="182" y="275" type="curve" smooth="yes"/>
			<point x="182" y="286"/>
			<point x="176" y="295"/>
			<point x="156" y="295" type="curve" smooth="yes"/>
			<point x="133" y="295"/>
			<point x="118" y="343"/>
			<point x="118" y="408" type="curve" smooth="yes"/>
			<point x="118" y="460"/>
			<point x="135" y="490"/>
			<point x="156" y="490" type="curve" smooth="yes"/>
			<point x="175" y="490"/>
			<point x="182" y="499"/>
			<point x="182" y="518" type="curve"/>
			<point x="176" y="539"/>
			<point x="173" y="560"/>
			<point x="173" y="580" type="curve" smooth="yes"/>
			<point x="173" y="760"/>
			<point x="316" y="821"/>
			<point x="490" y="821" type="curve" smooth="yes"/>
			<point x="664" y="821"/>
			<point x="807" y="760"/>
			<point x="807" y="580" type="curve" smooth="yes"/>
			<point x="807" y="560"/>
			<point x="804" y="539"/>
			<point x="798" y="518" type="curve"/>
			<point x="798" y="499"/>
			<point x="805" y="490"/>
			<point x="824" y="490" type="curve" smooth="yes"/>
			<point x="845" y="490"/>
			<point x="862" y="460"/>
			<point x="862" y="408" type="curve" smooth="yes"/>
			<point x="862" y="343"/>
			<point x="847" y="295"/>
			<point x="824" y="295" type="curve" smooth="yes"/>
			<point x="804" y="295"/>
			<point x="798" y="286"/>
			<point x="798" y="275" type="curve" smooth="yes"/>
			<point x="798" y="264"/>
			<point x="807" y="255"/>
			<point x="818" y="255" type="curve" smooth="yes"/>
			<point x="873" y="255"/>
			<point x="903" y="326"/>
			<point x="903" y="411" type="curve" smooth="yes"/>
			<point x="903" y="461"/>
			<point x="887" y="509"/>
			<point x="843" y="525" type="curve"/>
			<point x="843" y="525"/>
			<point x="851" y="538"/>
			<point x="851" y="588" type="curve" smooth="yes"/>
			<point x="851" y="714"/>
			<point x="780" y="861"/>
			<point x="490" y="861" type="curve" smooth="yes"/>
			<point x="200" y="861"/>
			<point x="129" y="714"/>
			<point x="129" y="588" type="curve" smooth="yes"/>
			<point x="129" y="538"/>
			<point x="137" y="525"/>
			<point x="137" y="525" type="curve"/>
			<point x="93" y="509"/>
			<point x="77" y="461"/>
			<point x="77" y="411" type="curve" smooth="yes"/>
			<point x="77" y="326"/>
			<point x="107" y="255"/>
		</contour>
		<contour>
			<point x="80" y="-200" type="curve" smooth="yes"/>
			<point x="900" y="-200" type="line" smooth="yes"/>
			<point x="912" y="-200"/>
			<point x="920" y="-189"/>
			<point x="920" y="-180" type="curve" smooth="yes"/>
			<point x="920" y="-76" type="line" smooth="yes"/>
			<point x="920" y="-69"/>
			<point x="916" y="-63"/>
			<point x="912" y="-60" type="curve" smooth="yes"/>
			<point x="909" y="-58"/>
			<point x="757" y="50"/>
			<point x="490" y="50" type="curve" smooth="yes"/>
			<point x="222" y="50"/>
			<point x="70" y="-58"/>
			<point x="68" y="-60" type="curve" smooth="yes"/>
			<point x="63" y="-64"/>
			<point x="60" y="-70"/>
			<point x="60" y="-76" type="curve" smooth="yes"/>
			<point x="60" y="-180" type="line" smooth="yes"/>
			<point x="60" y="-192"/>
			<point x="71" y="-200"/>
		</contour>
		<contour>
			<point x="100" y="-160" type="line"/>
			<point x="100" y="-87" type="line"/>
			<point x="134" y="-66"/>
			<point x="271" y="10"/>
			<point x="490" y="10" type="curve" smooth="yes"/>
			<point x="708" y="10"/>
			<point x="845" y="-65"/>
			<point x="880" y="-87" type="curve"/>
			<point x="880" y="-160" type="line"/>
		</contour>
		<contour>
			<point x="490" y="89" type="curve" smooth="yes"/>
			<point x="689" y="89"/>
			<point x="766" y="228"/>
			<point x="768" y="232" type="curve" smooth="yes"/>
			<point x="769" y="234"/>
			<point x="770" y="238"/>
			<point x="770" y="241" type="curve" smooth="yes"/>
			<point x="770" y="319" type="line" smooth="yes"/>
			<point x="770" y="324"/>
			<point x="768" y="330"/>
			<point x="763" y="334" type="curve" smooth="yes"/>
			<point x="704" y="387"/>
			<point x="568" y="415"/>
			<point x="490" y="415" type="curve" smooth="yes"/>
			<point x="412" y="415"/>
			<point x="276" y="387"/>
			<point x="217" y="334" type="curve" smooth="yes"/>
			<point x="213" y="330"/>
			<point x="210" y="325"/>
			<point x="210" y="319" type="curve" smooth="yes"/>
			<point x="210" y="241" type="line" smooth="yes"/>
			<point x="210" y="238"/>
			<point x="211" y="234"/>
			<point x="212" y="231" type="curve"/>
			<point x="214" y="229"/>
			<point x="290" y="89"/>
		</contour>
		<contour>
			<point x="490" y="129" type="curve" smooth="yes"/>
			<point x="332" y="129"/>
			<point x="263" y="226"/>
			<point x="250" y="247" type="curve"/>
			<point x="250" y="310" type="line"/>
			<point x="301" y="348"/>
			<point x="423" y="375"/>
			<point x="490" y="375" type="curve" smooth="yes"/>
			<point x="557" y="375"/>
			<point x="680" y="347"/>
			<point x="730" y="310" type="curve"/>
			<point x="730" y="247" type="line"/>
			<point x="716" y="225"/>
			<point x="647" y="129"/>
		</contour>
	</outline>
</glyph>
<glyph name="Lavar" format="2">
	<advance width="986"/>
	<outline>
		<contour>
			<point x="342" y="-144" type="curve" smooth="yes"/>
			<point x="657" y="-144" type="line" smooth="yes"/>
			<point x="679" y="-144"/>
			<point x="718" y="-122"/>
			<point x="718" y="-88" type="curve" smooth="yes"/>
			<point x="718" y="-83"/>
			<point x="717" y="-78"/>
			<point x="716" y="-74" type="curve"/>
			<point x="737" y="-74" type="line" smooth="yes"/>
			<point x="771" y="-74"/>
			<point x="798" y="-52"/>
			<point x="798" y="-18" type="curve" smooth="yes"/>
			<point x="798" y="16"/>
			<point x="771" y="35"/>
			<point x="740" y="36" type="curve"/>
			<point x="741" y="41"/>
			<point x="742" y="46"/>
			<point x="742" y="52" type="curve" smooth="yes"/>
			<point x="742" y="87"/>
			<point x="714" y="106"/>
			<point x="682" y="106" type="curve" smooth="yes"/>
			<point x="386" y="106" type="line" smooth="yes"/>
			<point x="375" y="106"/>
			<point x="366" y="97"/>
			<point x="366" y="86" type="curve" smooth="yes"/>
			<point x="366" y="75"/>
			<point x="375" y="66"/>
			<point x="386" y="66" type="curve" smooth="yes"/>
			<point x="682" y="66" type="line" smooth="yes"/>
			<point x="696" y="66"/>
			<point x="702" y="61"/>
			<point x="702" y="52" type="curve" smooth="yes"/>
			<point x="702" y="42"/>
			<point x="695" y="36"/>
			<point x="681" y="36" type="curve" smooth="yes"/>
			<point x="495" y="36" type="line" smooth="yes"/>
			<point x="484" y="36"/>
			<point x="475" y="27"/>
			<point x="475" y="16" type="curve" smooth="yes"/>
			<point x="475" y="5"/>
			<point x="484" y="-4"/>
			<point x="495" y="-4" type="curve" smooth="yes"/>
			<point x="738" y="-4" type="line" smooth="yes"/>
			<point x="752" y="-4"/>
			<point x="758" y="-9"/>
			<point x="758" y="-18" type="curve" smooth="yes"/>
			<point x="758" y="-28"/>
			<point x="751" y="-34"/>
			<point x="737" y="-34" type="curve" smooth="yes"/>
			<point x="495" y="-34" type="line" smooth="yes"/>
			<point x="484" y="-34"/>
			<point x="475" y="-43"/>
			<point x="475" y="-54" type="curve" smooth="yes"/>
			<point x="475" y="-65"/>
			<point x="484" y="-74"/>
			<point x="495" y="-74" type="curve" smooth="yes"/>
			<point x="658" y="-74" type="line" smooth="yes"/>
			<point x="672" y="-74"/>
			<point x="678" y="-79"/>
			<point x="678" y="-88" type="curve" smooth="yes"/>
			<point x="678" y="-98"/>
			<point x="666" y="-104"/>
			<point x="657" y="-104" type="curve" smooth="yes"/>
			<point x="342" y="-104" type="line" smooth="yes"/>
			<point x="327" y="-104"/>
			<point x="297" y="-57"/>
			<point x="246" y="-57" type="curve" smooth="yes"/>
			<point x="105" y="-57" type="line" smooth="yes"/>
			<point x="94" y="-57"/>
			<point x="85" y="-66"/>
			<point x="85" y="-77" type="curve" smooth="yes"/>
			<point x="85" y="-88"/>
			<point x="94" y="-97"/>
			<point x="105" y="-97" type="curve" smooth="yes"/>
			<point x="246" y="-97" type="line" smooth="yes"/>
			<point x="265" y="-97"/>
			<point x="293" y="-144"/>
		</contour>
		<contour>
			<point x="95" y="66" type="curve" smooth="yes"/>
			<point x="239" y="66" type="line" smooth="yes"/>
			<point x="292" y="66"/>
			<point x="307" y="160"/>
			<point x="347" y="160" type="curve" smooth="yes"/>
			<point x="378" y="160"/>
			<point x="404" y="151"/>
			<point x="447" y="151" type="curve" smooth="yes"/>
			<point x="477" y="151"/>
			<point x="506" y="157"/>
			<point x="525" y="163" type="curve" smooth="yes"/>
			<point x="535" y="166"/>
			<point x="541" y="178"/>
			<point x="538" y="188" type="curve" smooth="yes"/>
			<point x="535" y="198"/>
			<point x="523" y="204"/>
			<point x="513" y="201" type="curve" smooth="yes"/>
			<point x="499" y="196"/>
			<point x="471" y="191"/>
			<point x="447" y="191" type="curve" smooth="yes"/>
			<point x="411" y="191"/>
			<point x="386" y="200"/>
			<point x="347" y="200" type="curve" smooth="yes"/>
			<point x="292" y="200"/>
			<point x="269" y="106"/>
			<point x="237" y="106" type="curve" smooth="yes"/>
			<point x="95" y="106" type="line" smooth="yes"/>
			<point x="84" y="106"/>
			<point x="75" y="97"/>
			<point x="75" y="86" type="curve" smooth="yes"/>
			<point x="75" y="75"/>
			<point x="84" y="66"/>
		</contour>
		<contour>
			<point x="300" y="225" type="curve" smooth="yes"/>
			<point x="302" y="225"/>
			<point x="416" y="230"/>
			<point x="430" y="338" type="curve" smooth="yes"/>
			<point x="431" y="349"/>
			<point x="424" y="360"/>
			<point x="413" y="361" type="curve" smooth="yes"/>
			<point x="402" y="362"/>
			<point x="391" y="355"/>
			<point x="390" y="344" type="curve" smooth="yes"/>
			<point x="381" y="272"/>
			<point x="304" y="265"/>
			<point x="298" y="265" type="curve" smooth="yes"/>
			<point x="289" y="264"/>
			<point x="279" y="255"/>
			<point x="280" y="244" type="curve" smooth="yes"/>
			<point x="281" y="233"/>
			<point x="291" y="225"/>
		</contour>
		<contour>
			<point x="212" y="327" type="curve" smooth="yes"/>
			<point x="265" y="327"/>
			<point x="285" y="414"/>
			<point x="340" y="414" type="curve" smooth="yes"/>
			<point x="381" y="414"/>
			<point x="443" y="373"/>
			<point x="531" y="380" type="curve" smooth="yes"/>
			<point x="542" y="381"/>
			<point x="551" y="390"/>
			<point x="550" y="401" type="curve" smooth="yes"/>
			<point x="549" y="412"/>
			<point x="540" y="421"/>
			<point x="529" y="420" type="curve" smooth="yes"/>
			<point x="455" y="415"/>
			<point x="401" y="454"/>
			<point x="340" y="454" type="curve" smooth="yes"/>
			<point x="276" y="454"/>
			<point x="231" y="367"/>
			<point x="212" y="367" type="curve" smooth="yes"/>
			<point x="175" y="367"/>
			<point x="88" y="402"/>
			<point x="88" y="402" type="curve"/>
			<point x="78" y="406"/>
			<point x="65" y="401"/>
			<point x="61" y="391" type="curve" smooth="yes"/>
			<point x="57" y="381"/>
			<point x="62" y="368"/>
			<point x="72" y="364" type="curve"/>
			<point x="73" y="364"/>
			<point x="160" y="327"/>
		</contour>
		<contour>
			<point x="612" y="190" type="curve" smooth="yes"/>
			<point x="623" y="190"/>
			<point x="632" y="199"/>
			<point x="632" y="210" type="curve" smooth="yes"/>
			<point x="632" y="252" type="line" smooth="yes"/>
			<point x="632" y="263"/>
			<point x="623" y="272"/>
			<point x="612" y="272" type="curve" smooth="yes"/>
			<point x="601" y="272"/>
			<point x="592" y="263"/>
			<point x="592" y="252" type="curve" smooth="yes"/>
			<point x="592" y="210" type="line" smooth="yes"/>
			<point x="592" y="199"/>
			<point x="601" y="190"/>
		</contour>
		<contour>
			<point x="688" y="136" type="curve" smooth="yes"/>
			<point x="699" y="136"/>
			<point x="708" y="145"/>
			<point x="708" y="156" type="curve" smooth="yes"/>
			<point x="708" y="380" type="line" smooth="yes"/>
			<point x="708" y="391"/>
			<point x="699" y="400"/>
			<point x="688" y="400" type="curve" smooth="yes"/>
			<point x="677" y="400"/>
			<point x="668" y="391"/>
			<point x="668" y="380" type="curve" smooth="yes"/>
			<point x="668" y="156" type="line" smooth="yes"/>
			<point x="668" y="145"/>
			<point x="677" y="136"/>
		</contour>
		<contour>
			<point x="769" y="171" type="curve" smooth="yes"/>
			<point x="780" y="171"/>
			<point x="789" y="180"/>
			<point x="789" y="191" type="curve" smooth="yes"/>
			<point x="789" y="233" type="line" smooth="yes"/>
			<point x="789" y="244"/>
			<point x="780" y="253"/>
			<point x="769" y="253" type="curve" smooth="yes"/>
			<point x="758" y="253"/>
			<point x="749" y="244"/>
			<point x="749" y="233" type="curve" smooth="yes"/>
			<point x="749" y="191" type="line" smooth="yes"/>
			<point x="749" y="180"/>
			<point x="758" y="171"/>
		</contour>
		<contour>
			<point x="612" y="300" type="curve" smooth="yes"/>
			<point x="623" y="300"/>
			<point x="632" y="311"/>
			<point x="632" y="320" type="curve" smooth="yes"/>
			<point x="632" y="536" type="line" smooth="yes"/>
			<point x="632" y="547"/>
			<point x="623" y="556"/>
			<point x="612" y="556" type="curve" smooth="yes"/>
			<point x="601" y="556"/>
			<point x="592" y="547"/>
			<point x="592" y="536" type="curve" smooth="yes"/>
			<point x="592" y="320" type="line" smooth="yes"/>
			<point x="592" y="311"/>
			<point x="601" y="300"/>
		</contour>
		<contour>
			<point x="769" y="293" type="curve" smooth="yes"/>
			<point x="780" y="293"/>
			<point x="789" y="302"/>
			<point x="789" y="313" type="curve" smooth="yes"/>
			<point x="789" y="536" type="line" smooth="yes"/>
			<point x="789" y="547"/>
			<point x="780" y="556"/>
			<point x="769" y="556" type="curve" smooth="yes"/>
			<point x="758" y="556"/>
			<point x="749" y="547"/>
			<point x="749" y="536" type="curve" smooth="yes"/>
			<point x="749" y="313" type="line" smooth="yes"/>
			<point x="749" y="302"/>
			<point x="758" y="293"/>
		</contour>
		<contour>
			<point x="689" y="475" type="curve" smooth="yes"/>
			<point x="700" y="475"/>
			<point x="709" y="484"/>
			<point x="709" y="495" type="curve" smooth="yes"/>
			<point x="709" y="536" type="line" smooth="yes"/>
			<point x="709" y="547"/>
			<point x="700" y="556"/>
			<point x="689" y="556" type="curve" smooth="yes"/>
			<point x="678" y="556"/>
			<point x="669" y="547"/>
			<point x="669" y="536" type="curve" smooth="yes"/>
			<point x="669" y="495" type="line" smooth="yes"/>
			<point x="669" y="484"/>
			<point x="678" y="475"/>
		</contour>
		<contour>
			<point x="589" y="576" type="curve" smooth="yes"/>
			<point x="793" y="576" type="line" smooth="yes"/>
			<point x="803" y="576"/>
			<point x="813" y="585"/>
			<point x="813" y="596" type="curve" smooth="yes"/>
			<point x="813" y="607"/>
			<point x="803" y="616"/>
			<point x="793" y="616" type="curve" smooth="yes"/>
			<point x="589" y="616" type="line" smooth="yes"/>
			<point x="578" y="616"/>
			<point x="569" y="607"/>
			<point x="569" y="596" type="curve" smooth="yes"/>
			<point x="569" y="585"/>
			<point x="578" y="576"/>
		</contour>
		<contour>
			<point x="629" y="587" type="curve" smooth="yes"/>
			<point x="640" y="587"/>
			<point x="649" y="596"/>
			<point x="649" y="607" type="curve" smooth="yes"/>
			<point x="649" y="662"/>
			<point x="678" y="749"/>
			<point x="774" y="749" type="curve" smooth="yes"/>
			<point x="906" y="749" type="line" smooth="yes"/>
			<point x="917" y="749"/>
			<point x="926" y="758"/>
			<point x="926" y="769" type="curve" smooth="yes"/>
			<point x="926" y="780"/>
			<point x="917" y="789"/>
			<point x="906" y="789" type="curve" smooth="yes"/>
			<point x="774" y="789" type="line" smooth="yes"/>
			<point x="644" y="789"/>
			<point x="609" y="670"/>
			<point x="609" y="607" type="curve" smooth="yes"/>
			<point x="609" y="596"/>
			<point x="618" y="587"/>
		</contour>
		<contour>
			<point x="751" y="590" type="curve" smooth="yes"/>
			<point x="762" y="590"/>
			<point x="771" y="599"/>
			<point x="771" y="610" type="curve" smooth="yes"/>
			<point x="771" y="629"/>
			<point x="781" y="646"/>
			<point x="803" y="646" type="curve" smooth="yes"/>
			<point x="899" y="646" type="line" smooth="yes"/>
			<point x="910" y="646"/>
			<point x="919" y="655"/>
			<point x="919" y="666" type="curve" smooth="yes"/>
			<point x="919" y="677"/>
			<point x="910" y="686"/>
			<point x="899" y="686" type="curve" smooth="yes"/>
			<point x="803" y="686" type="line" smooth="yes"/>
			<point x="751" y="686"/>
			<point x="731" y="641"/>
			<point x="731" y="610" type="curve" smooth="yes"/>
			<point x="731" y="599"/>
			<point x="740" y="590"/>
		</contour>
	</outline>
</glyph>
<glyph name="Mujer" format="2">
	<advance width="628"/>
	<outline>
		<contour>
			<point x="314" y="76" type="curve" smooth="yes"/>
			<point x="413" y="76"/>
			<point x="470" y="122"/>
			<point x="473" y="124" type="curve" smooth="yes"/>
			<point x="480" y="129"/>
			<point x="483" y="138"/>
			<point x="479" y="148" type="curve"/>
			<point x="479" y="150"/>
			<point x="445" y="241"/>
			<point x="444" y="332" type="curve"/>
			<point x="458" y="258" type="line"/>
			<point x="495" y="148" type="line" smooth="yes"/>
			<point x="497" y="141"/>
			<point x="505" y="134"/>
			<point x="514" y="134" type="curve" smooth="yes"/>
			<point x="526" y="134"/>
			<point x="538" y="135"/>
			<point x="550" y="143" type="curve" smooth="yes"/>
			<point x="559" y="150"/>
			<point x="565" y="161"/>
			<point x="568" y="173" type="curve"/>
			<point x="568" y="176"/>
			<point x="568" y="179"/>
			<point x="567" y="182" type="curve"/>
			<point x="567" y="182"/>
			<point x="499" y="449"/>
			<point x="485" y="494" type="curve" smooth="yes"/>
			<point x="468" y="549"/>
			<point x="409" y="570"/>
			<point x="367" y="570" type="curve" smooth="yes"/>
			<point x="261" y="570" type="line" smooth="yes"/>
			<point x="219" y="570"/>
			<point x="160" y="549"/>
			<point x="143" y="494" type="curve" smooth="yes"/>
			<point x="129" y="449"/>
			<point x="61" y="182"/>
			<point x="61" y="182" type="curve"/>
			<point x="60" y="179"/>
			<point x="60" y="176"/>
			<point x="60" y="173" type="curve"/>
			<point x="63" y="161"/>
			<point x="69" y="150"/>
			<point x="78" y="143" type="curve" smooth="yes"/>
			<point x="90" y="135"/>
			<point x="102" y="134"/>
			<point x="114" y="134" type="curve" smooth="yes"/>
			<point x="123" y="134"/>
			<point x="131" y="141"/>
			<point x="133" y="148" type="curve" smooth="yes"/>
			<point x="170" y="258" type="line"/>
			<point x="184" y="332" type="line"/>
			<point x="183" y="241"/>
			<point x="149" y="150"/>
			<point x="149" y="148" type="curve"/>
			<point x="145" y="138"/>
			<point x="148" y="129"/>
			<point x="155" y="124" type="curve" smooth="yes"/>
			<point x="158" y="122"/>
			<point x="215" y="76"/>
		</contour>
		<contour>
			<point x="203" y="-195" type="curve" smooth="yes"/>
			<point x="223" y="-209"/>
			<point x="263" y="-214"/>
			<point x="284" y="-193" type="curve" smooth="yes"/>
			<point x="288" y="-189"/>
			<point x="290" y="-185"/>
			<point x="290" y="-180" type="curve" smooth="yes"/>
			<point x="300" y="0" type="line"/>
			<point x="302" y="59" type="line"/>
			<point x="266" y="64" type="line"/>
			<point x="251" y="-166" type="line" smooth="yes"/>
			<point x="251" y="-167"/>
			<point x="241" y="-166"/>
			<point x="234" y="-165" type="curve"/>
			<point x="235" y="70" type="line"/>
			<point x="196" y="81" type="line"/>
			<point x="194" y="-179" type="line" smooth="yes"/>
			<point x="194" y="-186"/>
			<point x="198" y="-192"/>
		</contour>
		<contour>
			<point x="426" y="-195" type="curve" smooth="yes"/>
			<point x="431" y="-192"/>
			<point x="435" y="-186"/>
			<point x="435" y="-179" type="curve" smooth="yes"/>
			<point x="433" y="81" type="line"/>
			<point x="394" y="70" type="line"/>
			<point x="395" y="-165" type="line"/>
			<point x="388" y="-166"/>
			<point x="378" y="-167"/>
			<point x="378" y="-166" type="curve" smooth="yes"/>
			<point x="363" y="64" type="line"/>
			<point x="327" y="59" type="line"/>
			<point x="329" y="0" type="line"/>
			<point x="339" y="-180" type="line" smooth="yes"/>
			<point x="339" y="-185"/>
			<point x="341" y="-189"/>
			<point x="345" y="-193" type="curve" smooth="yes"/>
			<point x="366" y="-214"/>
			<point x="406" y="-209"/>
		</contour>
		<contour>
			<point x="314" y="116" type="curve" smooth="yes"/>
			<point x="253" y="116"/>
			<point x="215" y="136"/>
			<point x="192" y="148" type="curve"/>
			<point x="205" y="181"/>
			<point x="224" y="263"/>
			<point x="224" y="375" type="curve" smooth="yes"/>
			<point x="224" y="384"/>
			<point x="216" y="395"/>
			<point x="204" y="395" type="curve" smooth="yes"/>
			<point x="189" y="395" type="line" smooth="yes"/>
			<point x="182" y="395"/>
			<point x="173" y="390"/>
			<point x="170" y="381" type="curve" smooth="yes"/>
			<point x="103" y="176" type="line"/>
			<point x="94" y="180" type="line"/>
			<point x="107" y="231"/>
			<point x="171" y="448"/>
			<point x="181" y="482" type="curve" smooth="yes"/>
			<point x="190" y="513"/>
			<point x="229" y="530"/>
			<point x="261" y="530" type="curve" smooth="yes"/>
			<point x="367" y="530" type="line" smooth="yes"/>
			<point x="399" y="530"/>
			<point x="438" y="513"/>
			<point x="447" y="482" type="curve" smooth="yes"/>
			<point x="457" y="448"/>
			<point x="521" y="231"/>
			<point x="534" y="180" type="curve"/>
			<point x="525" y="176" type="line"/>
			<point x="458" y="381" type="line" smooth="yes"/>
			<point x="455" y="390"/>
			<point x="446" y="395"/>
			<point x="439" y="395" type="curve" smooth="yes"/>
			<point x="424" y="395" type="line" smooth="yes"/>
			<point x="412" y="395"/>
			<point x="404" y="384"/>
			<point x="404" y="375" type="curve" smooth="yes"/>
			<point x="404" y="263"/>
			<point x="423" y="181"/>
			<point x="436" y="148" type="curve"/>
			<point x="413" y="136"/>
			<point x="375" y="116"/>
		</contour>
		<contour>
			<point x="314" y="592" type="curve" smooth="yes"/>
			<point x="412" y="592"/>
			<point x="440" y="649"/>
			<point x="445" y="655" type="curve" smooth="yes"/>
			<point x="451" y="662"/>
			<point x="453" y="676"/>
			<point x="442" y="682" type="curve" smooth="yes"/>
			<point x="435" y="686"/>
			<point x="416" y="705"/>
			<point x="416" y="729" type="curve" smooth="yes"/>
			<point x="416" y="781"/>
			<point x="371" y="826"/>
			<point x="314" y="826" type="curve" smooth="yes"/>
			<point x="257" y="826"/>
			<point x="212" y="781"/>
			<point x="212" y="729" type="curve" smooth="yes"/>
			<point x="212" y="705"/>
			<point x="193" y="686"/>
			<point x="186" y="682" type="curve" smooth="yes"/>
			<point x="175" y="676"/>
			<point x="177" y="662"/>
			<point x="183" y="655" type="curve" smooth="yes"/>
			<point x="188" y="649"/>
			<point x="216" y="592"/>
		</contour>
		<contour>
			<point x="314" y="632" type="curve" smooth="yes"/>
			<point x="276" y="632"/>
			<point x="247" y="648"/>
			<point x="229" y="671" type="curve"/>
			<point x="243" y="687"/>
			<point x="252" y="708"/>
			<point x="252" y="732" type="curve" smooth="yes"/>
			<point x="252" y="759"/>
			<point x="279" y="786"/>
			<point x="314" y="786" type="curve" smooth="yes"/>
			<point x="349" y="786"/>
			<point x="377" y="759"/>
			<point x="377" y="732" type="curve" smooth="yes"/>
			<point x="377" y="709"/>
			<point x="384" y="687"/>
			<point x="401" y="671" type="curve"/>
			<point x="391" y="649"/>
			<point x="356" y="632"/>
		</contour>
	</outline>
</glyph>
